<svg width="291" height="572" viewBox="0 0 291 572" fill="none" xmlns="http://www.w3.org/2000/svg">
<rect x="51.5843" y="221.519" width="29.2612" height="9.59691" rx="4.79845" transform="rotate(30 51.5843 221.519)" stroke="white" stroke-width="2"/>
<rect x="1.10375" y="531.818" width="286" height="39" rx="19.5" transform="rotate(-6.30342 1.10375 531.818)" stroke="#E4B79D" stroke-width="2"/>
<rect x="179.337" y="160.54" width="29.2612" height="9.59691" rx="4.79845" transform="rotate(-17.2861 179.337 160.54)" stroke="white" stroke-width="2"/>
<rect x="66.0065" y="153.654" width="29.2612" height="9.59691" rx="4.79845" transform="rotate(-15 66.0065 153.654)" stroke="#FFBD12" stroke-width="2"/>
<rect x="36.6754" y="74.3265" width="29.2612" height="9.59691" rx="4.79845" transform="rotate(-21.3285 36.6754 74.3265)" stroke="#6AD588" stroke-width="2"/>
<rect x="122.727" y="183.298" width="29.2612" height="9.59691" rx="4.79845" transform="rotate(80.4445 122.727 183.298)" stroke="#EC2C94" stroke-width="2"/>
<rect x="121.262" y="93.1857" width="29.2612" height="9.59691" rx="4.79845" transform="rotate(35.725 121.262 93.1857)" stroke="#4C84F2" stroke-width="2"/>
<rect x="99.3277" y="303.455" width="29.2612" height="9.59691" rx="4.79845" transform="rotate(-9.7817 99.3277 303.455)" stroke="#4C84F2" stroke-width="2"/>
<rect x="127.699" y="8.72737" width="29.2612" height="9.59691" rx="4.79845" transform="rotate(139.687 127.699 8.72737)" stroke="#EC2C94" stroke-width="2"/>
<path d="M58.7906 354.636L240.468 424.437C249.587 427.94 254.139 438.173 250.635 447.291C249.385 450.546 245.733 452.17 242.479 450.92L39.5649 372.959C36.3105 371.709 34.6859 368.057 35.9362 364.803C39.4397 355.684 49.6719 351.132 58.7906 354.636Z" stroke="#EF336B" stroke-width="2"/>
</svg>
