<svg width="215" height="258" viewBox="0 0 215 258" fill="none" xmlns="http://www.w3.org/2000/svg">
<path d="M179.52 74.4399H30.82C22.7014 74.4399 16.12 81.0213 16.12 89.1399V170.04C16.12 178.159 22.7014 184.74 30.82 184.74H179.52C187.639 184.74 194.22 178.159 194.22 170.04V89.1399C194.22 81.0213 187.639 74.4399 179.52 74.4399Z" stroke="#B2519E" stroke-width="2" stroke-miterlimit="10"/>
<path d="M194.23 89.1399H16.12" stroke="#B2519E" stroke-width="2" stroke-miterlimit="10"/>
<path d="M31.38 79.0701H31.37C29.68 79.0701 28.31 80.4401 28.31 82.1301V82.14C28.31 83.83 29.68 85.2 31.37 85.2H31.38C33.07 85.2 34.44 83.83 34.44 82.14V82.1301C34.44 80.4401 33.07 79.0701 31.38 79.0701Z" fill="#B2519E" stroke="#B2519E" stroke-miterlimit="10"/>
<path d="M40.94 79.0701H40.93C39.24 79.0701 37.87 80.4401 37.87 82.1301V82.14C37.87 83.83 39.24 85.2 40.93 85.2H40.94C42.63 85.2 44 83.83 44 82.14V82.1301C44 80.4401 42.63 79.0701 40.94 79.0701Z" stroke="#B2519E" stroke-miterlimit="10"/>
<path d="M50.51 79.0701H50.5C48.81 79.0701 47.44 80.4401 47.44 82.1301V82.14C47.44 83.83 48.81 85.2 50.5 85.2H50.51C52.2 85.2 53.57 83.83 53.57 82.14V82.1301C53.57 80.4401 52.2 79.0701 50.51 79.0701Z" stroke="#B2519E" stroke-miterlimit="10"/>
<path d="M29.6348 124.96L28.6441 116.55H29.5081L30.1878 122.771C30.2031 122.932 30.2185 123.109 30.2338 123.301C30.2569 123.485 30.2761 123.67 30.2914 123.854C30.3068 124.031 30.3145 124.18 30.3145 124.303C30.3298 124.18 30.3452 124.031 30.3606 123.854C30.3836 123.67 30.4066 123.485 30.4297 123.301C30.4527 123.109 30.4758 122.932 30.4988 122.771L31.3052 116.55H32.2844L33.0332 122.771C33.0562 122.932 33.0793 123.109 33.1023 123.301C33.1254 123.485 33.1484 123.67 33.1714 123.854C33.1945 124.031 33.2098 124.18 33.2175 124.303C33.2329 124.18 33.2482 124.031 33.2636 123.854C33.279 123.67 33.2982 123.485 33.3212 123.301C33.3442 123.109 33.3634 122.932 33.3788 122.771L34.047 116.55H34.8879L33.8857 124.96H32.7106L31.9618 118.682C31.9388 118.505 31.9158 118.324 31.8927 118.14C31.8774 117.956 31.8582 117.783 31.8351 117.622C31.8198 117.453 31.8044 117.315 31.789 117.207C31.7814 117.315 31.766 117.449 31.743 117.61C31.7199 117.771 31.6969 117.948 31.6738 118.14C31.6585 118.324 31.6393 118.505 31.6162 118.682L30.7983 124.96H29.6348ZM38.6735 125.075C38.182 125.075 37.7557 124.979 37.3948 124.787C37.0338 124.587 36.7535 124.307 36.5538 123.946C36.3541 123.585 36.2543 123.167 36.2543 122.691V120.893C36.2543 120.41 36.3541 119.991 36.5538 119.638C36.7535 119.277 37.0338 119 37.3948 118.808C37.7557 118.609 38.182 118.509 38.6735 118.509C39.165 118.509 39.5913 118.609 39.9522 118.808C40.3132 119 40.5935 119.277 40.7932 119.638C40.9929 119.991 41.0927 120.41 41.0927 120.893V122.011H37.1529V122.691C37.1529 123.205 37.2834 123.604 37.5445 123.889C37.8133 124.165 38.1897 124.303 38.6735 124.303C39.0805 124.303 39.4108 124.223 39.6642 124.061C39.9253 123.9 40.0905 123.666 40.1596 123.359H41.0697C40.9852 123.889 40.7279 124.307 40.2978 124.614C39.8677 124.922 39.3263 125.075 38.6735 125.075ZM40.1941 121.4V120.893C40.1941 120.379 40.0636 119.983 39.8025 119.707C39.5413 119.423 39.165 119.281 38.6735 119.281C38.1897 119.281 37.8133 119.423 37.5445 119.707C37.2834 119.983 37.1529 120.379 37.1529 120.893V121.297H40.2863L40.1941 121.4ZM45.892 125.075C45.3621 125.075 44.932 124.933 44.6018 124.649C44.2792 124.357 44.118 123.962 44.118 123.462L44.3944 123.843H44.1525V124.96H43.2424V116.55H44.1525V118.359L44.141 119.741H44.3599L44.118 120.122C44.118 119.63 44.2831 119.238 44.6133 118.947C44.9436 118.655 45.3698 118.509 45.892 118.509C46.5295 118.509 47.0402 118.72 47.4242 119.142C47.8082 119.565 48.0002 120.137 48.0002 120.859V122.737C48.0002 123.451 47.8082 124.019 47.4242 124.442C47.0402 124.864 46.5295 125.075 45.892 125.075ZM45.604 124.28C46.0648 124.28 46.4258 124.142 46.6869 123.866C46.948 123.589 47.0786 123.197 47.0786 122.691V120.893C47.0786 120.387 46.948 119.995 46.6869 119.718C46.4258 119.442 46.0648 119.304 45.604 119.304C45.1586 119.304 44.8053 119.446 44.5442 119.73C44.2831 120.006 44.1525 120.394 44.1525 120.893V122.691C44.1525 123.19 44.2831 123.581 44.5442 123.866C44.8053 124.142 45.1586 124.28 45.604 124.28ZM52.2581 125.064C51.8434 125.064 51.4709 124.995 51.1407 124.856C50.8181 124.718 50.5608 124.522 50.3688 124.269C50.1845 124.015 50.0885 123.72 50.0808 123.382H51.0139C51.0293 123.643 51.1522 123.854 51.3826 124.015C51.6207 124.169 51.9202 124.246 52.2811 124.246H52.8341C53.2488 124.246 53.5599 124.157 53.7672 123.981C53.9823 123.796 54.0898 123.555 54.0898 123.255C54.0898 122.971 53.9938 122.74 53.8018 122.564C53.6098 122.387 53.341 122.272 52.9954 122.218L52.0392 122.068C51.4325 121.969 50.9794 121.773 50.6799 121.481C50.3803 121.189 50.2306 120.794 50.2306 120.294C50.2306 119.734 50.4149 119.3 50.7835 118.993C51.1599 118.678 51.6859 118.52 52.3618 118.52H52.8111C53.4331 118.52 53.9362 118.666 54.3202 118.958C54.7042 119.242 54.9039 119.622 54.9192 120.099H53.9861C53.9707 119.868 53.8555 119.684 53.6405 119.546C53.4331 119.407 53.149 119.338 52.788 119.338H52.3387C51.9624 119.338 51.6667 119.423 51.4517 119.592C51.2367 119.761 51.1291 119.995 51.1291 120.294C51.1291 120.801 51.4786 121.108 52.1775 121.216L53.1221 121.366C53.7519 121.466 54.2203 121.665 54.5275 121.965C54.8347 122.257 54.9883 122.667 54.9883 123.197C54.9883 123.773 54.804 124.23 54.4354 124.568C54.0667 124.899 53.5291 125.064 52.8226 125.064H52.2581ZM56.9538 124.96V124.131H59.2117V119.453H57.1957V118.624H60.1333V124.131H62.276V124.96H56.9538ZM59.5688 117.46C59.3307 117.46 59.1387 117.399 58.9928 117.276C58.8546 117.153 58.7854 116.984 58.7854 116.769C58.7854 116.547 58.8546 116.37 58.9928 116.239C59.1387 116.109 59.3307 116.043 59.5688 116.043C59.8069 116.043 59.995 116.109 60.1333 116.239C60.2792 116.37 60.3522 116.547 60.3522 116.769C60.3522 116.977 60.2792 117.146 60.1333 117.276C59.995 117.399 59.8069 117.46 59.5688 117.46ZM66.9947 124.96C66.4801 124.96 66.0731 124.818 65.7736 124.534C65.4741 124.242 65.3243 123.846 65.3243 123.347V119.453H63.5272V118.624H65.3243V116.838H66.2459V118.624H68.7918V119.453H66.2459V123.347C66.2459 123.585 66.3112 123.777 66.4417 123.923C66.58 124.061 66.7643 124.131 66.9947 124.131H68.6766V124.96H66.9947ZM73.211 125.075C72.7195 125.075 72.2932 124.979 71.9323 124.787C71.5713 124.587 71.291 124.307 71.0913 123.946C70.8916 123.585 70.7918 123.167 70.7918 122.691V120.893C70.7918 120.41 70.8916 119.991 71.0913 119.638C71.291 119.277 71.5713 119 71.9323 118.808C72.2932 118.609 72.7195 118.509 73.211 118.509C73.7025 118.509 74.1288 118.609 74.4897 118.808C74.8507 119 75.131 119.277 75.3307 119.638C75.5304 119.991 75.6302 120.41 75.6302 120.893V122.011H71.6904V122.691C71.6904 123.205 71.8209 123.604 72.082 123.889C72.3508 124.165 72.7272 124.303 73.211 124.303C73.618 124.303 73.9483 124.223 74.2017 124.061C74.4628 123.9 74.628 123.666 74.6971 123.359H75.6072C75.5227 123.889 75.2654 124.307 74.8353 124.614C74.4052 124.922 73.8638 125.075 73.211 125.075ZM74.7316 121.4V120.893C74.7316 120.379 74.6011 119.983 74.34 119.707C74.0788 119.423 73.7025 119.281 73.211 119.281C72.7272 119.281 72.3508 119.423 72.082 119.707C71.8209 119.983 71.6904 120.379 71.6904 120.893V121.297H74.8238L74.7316 121.4ZM80.1185 125.075C79.8343 125.075 79.6078 124.995 79.4388 124.833C79.2775 124.664 79.1969 124.442 79.1969 124.165C79.1969 123.873 79.2775 123.643 79.4388 123.474C79.6078 123.305 79.8343 123.22 80.1185 123.22C80.4027 123.22 80.6254 123.305 80.7867 123.474C80.9556 123.643 81.0401 123.873 81.0401 124.165C81.0401 124.442 80.9556 124.664 80.7867 124.833C80.6254 124.995 80.4027 125.075 80.1185 125.075Z" fill="#B2519E"/>
<path d="M31.6184 173.819C31.3833 173.819 31.1722 173.78 30.985 173.701C30.8021 173.623 30.6563 173.512 30.5475 173.368C30.443 173.225 30.3886 173.057 30.3842 172.865H30.9131C30.9218 173.013 30.9915 173.133 31.1221 173.225C31.2571 173.312 31.4268 173.355 31.6314 173.355H31.9449C32.18 173.355 32.3563 173.305 32.4738 173.205C32.5957 173.1 32.6566 172.963 32.6566 172.794C32.6566 172.632 32.6022 172.502 32.4934 172.402C32.3846 172.302 32.2322 172.236 32.0363 172.206L31.4943 172.121C31.1504 172.064 30.8935 171.953 30.7238 171.788C30.554 171.623 30.4691 171.398 30.4691 171.115C30.4691 170.798 30.5736 170.552 30.7825 170.377C30.9959 170.199 31.2941 170.11 31.6771 170.11H31.9318C32.2844 170.11 32.5696 170.192 32.7872 170.358C33.0049 170.519 33.1181 170.734 33.1268 171.004H32.5979C32.5892 170.874 32.5239 170.769 32.402 170.691C32.2844 170.613 32.1234 170.573 31.9188 170.573H31.6641C31.4508 170.573 31.2832 170.621 31.1613 170.717C31.0394 170.813 30.9784 170.946 30.9784 171.115C30.9784 171.403 31.1765 171.577 31.5727 171.638L32.1081 171.723C32.4651 171.779 32.7307 171.892 32.9048 172.062C33.0789 172.228 33.166 172.461 33.166 172.761C33.166 173.087 33.0615 173.346 32.8525 173.538C32.6436 173.725 32.3389 173.819 31.9383 173.819H31.6184ZM34.3388 173.76V168.993H34.8547V170.116V170.808H34.9853L34.8416 171.017C34.8416 170.73 34.9287 170.506 35.1028 170.345C35.2813 170.184 35.5229 170.103 35.8277 170.103C36.1847 170.103 36.4698 170.216 36.6831 170.443C36.8964 170.665 37.0031 170.967 37.0031 171.35V173.76H36.4872V171.409C36.4872 171.135 36.4154 170.922 36.2717 170.769C36.1281 170.617 35.9322 170.541 35.684 170.541C35.4272 170.541 35.2247 170.621 35.0767 170.782C34.9287 170.943 34.8547 171.168 34.8547 171.455V173.76H34.3388ZM39.2991 173.825C38.9203 173.825 38.6221 173.73 38.4045 173.538C38.1868 173.342 38.078 173.079 38.078 172.748C38.078 172.421 38.1846 172.165 38.3979 171.977C38.6113 171.786 38.8986 171.69 39.2599 171.69H40.4027V171.311C40.4027 171.076 40.3287 170.893 40.1806 170.763C40.037 170.628 39.8411 170.56 39.5929 170.56C39.3622 170.56 39.1728 170.615 39.0248 170.724C38.8812 170.832 38.7985 170.963 38.7767 171.115H38.2543C38.2848 170.915 38.3588 170.741 38.4763 170.593C38.5982 170.441 38.7571 170.321 38.953 170.234C39.1489 170.147 39.3666 170.103 39.606 170.103C40.0109 170.103 40.3308 170.212 40.5659 170.43C40.801 170.643 40.9185 170.933 40.9185 171.298V173.76H40.4092V173.061H40.3243L40.4222 172.957C40.4222 173.222 40.3199 173.434 40.1153 173.59C39.9107 173.747 39.6386 173.825 39.2991 173.825ZM39.4232 173.407C39.7105 173.407 39.9456 173.336 40.1284 173.192C40.3112 173.048 40.4027 172.861 40.4027 172.63V172.088H39.2664C39.0618 172.088 38.8986 172.145 38.7767 172.258C38.6548 172.371 38.5938 172.526 38.5938 172.722C38.5938 172.931 38.6679 173.098 38.8159 173.225C38.9639 173.346 39.1663 173.407 39.4232 173.407ZM42.2807 173.76V170.169H42.7966V170.835H42.9076L42.777 171.037C42.777 170.745 42.8641 170.517 43.0382 170.351C43.2167 170.186 43.4583 170.103 43.7631 170.103C44.1418 170.103 44.4422 170.223 44.6642 170.462C44.8862 170.697 44.9972 171.015 44.9972 171.416V171.664H44.4683V171.455C44.4683 171.168 44.3943 170.946 44.2463 170.789C44.1026 170.632 43.8937 170.554 43.6194 170.554C43.3582 170.554 43.1558 170.632 43.0121 170.789C42.8684 170.941 42.7966 171.163 42.7966 171.455V173.76H42.2807ZM47.4108 173.825C47.1322 173.825 46.8906 173.771 46.6859 173.662C46.4813 173.549 46.3224 173.39 46.2093 173.185C46.0961 172.981 46.0395 172.744 46.0395 172.474V171.455C46.0395 171.181 46.0961 170.943 46.2093 170.743C46.3224 170.539 46.4813 170.382 46.6859 170.273C46.8906 170.16 47.1322 170.103 47.4108 170.103C47.6894 170.103 47.931 170.16 48.1356 170.273C48.3402 170.382 48.4991 170.539 48.6123 170.743C48.7255 170.943 48.7821 171.181 48.7821 171.455V172.088H46.5488V172.474C46.5488 172.765 46.6228 172.992 46.7708 173.153C46.9232 173.309 47.1365 173.388 47.4108 173.388C47.6415 173.388 47.8287 173.342 47.9724 173.251C48.1204 173.159 48.214 173.026 48.2531 172.852H48.769C48.7211 173.153 48.5753 173.39 48.3315 173.564C48.0877 173.738 47.7808 173.825 47.4108 173.825ZM48.2727 171.742V171.455C48.2727 171.163 48.1987 170.939 48.0507 170.782C47.9027 170.621 47.6894 170.541 47.4108 170.541C47.1365 170.541 46.9232 170.621 46.7708 170.782C46.6228 170.939 46.5488 171.163 46.5488 171.455V171.683H48.325L48.2727 171.742Z" fill="#B2519E"/>
<path d="M3.88599 12.6052C3.34839 12.6052 2.87991 12.5054 2.48055 12.3057C2.08887 12.0983 1.78551 11.8103 1.57047 11.4417C1.36311 11.0654 1.25943 10.6238 1.25943 10.1169V6.45351C1.25943 5.94663 1.36311 5.50887 1.57047 5.14023C1.78551 4.76391 2.08887 4.47591 2.48055 4.27623C2.87991 4.06887 3.34839 3.96519 3.88599 3.96519C4.43127 3.96519 4.89975 4.06887 5.29143 4.27623C5.68311 4.47591 5.98263 4.76391 6.18999 5.14023C6.40503 5.50887 6.51255 5.94279 6.51255 6.44199V10.1169C6.51255 10.6238 6.40503 11.0654 6.18999 11.4417C5.98263 11.8103 5.68311 12.0983 5.29143 12.3057C4.89975 12.5054 4.43127 12.6052 3.88599 12.6052ZM3.88599 11.338C4.27767 11.338 4.57335 11.2343 4.77303 11.027C4.97271 10.8119 5.07255 10.5086 5.07255 10.1169V6.45351C5.07255 6.05415 4.97271 5.75079 4.77303 5.54343C4.57335 5.33607 4.27767 5.23239 3.88599 5.23239C3.49431 5.23239 3.19863 5.33607 2.99895 5.54343C2.79927 5.75079 2.69943 6.05415 2.69943 6.45351V10.1169C2.69943 10.5086 2.79927 10.8119 2.99895 11.027C3.20631 11.2343 3.50199 11.338 3.88599 11.338ZM8.22453 12.49V6.15399H9.62997V7.36359H10.0217L9.62997 7.69767C9.62997 7.18311 9.77973 6.77991 10.0793 6.48807C10.3865 6.18855 10.805 6.03879 11.3349 6.03879C11.957 6.03879 12.4524 6.24615 12.821 6.66087C13.1973 7.07559 13.3855 7.63239 13.3855 8.33127V12.49H11.9455V8.48103C11.9455 8.09703 11.8457 7.80135 11.646 7.59399C11.4463 7.38663 11.1698 7.28295 10.8165 7.28295C10.4556 7.28295 10.1714 7.39047 9.96405 7.60551C9.76437 7.82055 9.66453 8.12775 9.66453 8.52711V12.49H8.22453ZM23.0648 14.5636L23.9634 12.1444L21.5211 6.15399H23.0879L24.332 9.39111C24.4011 9.56775 24.4664 9.78279 24.5279 10.0362C24.5893 10.282 24.6354 10.4855 24.6661 10.6468C24.7045 10.4855 24.7544 10.282 24.8159 10.0362C24.8773 9.78279 24.9426 9.56775 25.0117 9.39111L26.1983 6.15399H27.6959L24.5739 14.5636H23.0648ZM31.516 12.5937C30.9784 12.5937 30.5099 12.4938 30.1106 12.2942C29.7112 12.0868 29.404 11.7988 29.189 11.4302C28.9739 11.0538 28.8664 10.6122 28.8664 10.1053V8.53863C28.8664 8.03175 28.9739 7.59399 29.189 7.22535C29.404 6.84903 29.7112 6.56103 30.1106 6.36135C30.5099 6.15399 30.9784 6.05031 31.516 6.05031C32.0613 6.05031 32.5298 6.15399 32.9214 6.36135C33.3208 6.56103 33.628 6.84903 33.843 7.22535C34.0581 7.59399 34.1656 8.02791 34.1656 8.52711V10.1053C34.1656 10.6122 34.0581 11.0538 33.843 11.4302C33.628 11.7988 33.3208 12.0868 32.9214 12.2942C32.5298 12.4938 32.0613 12.5937 31.516 12.5937ZM31.516 11.338C31.9 11.338 32.1957 11.2343 32.403 11.027C32.6181 10.8119 32.7256 10.5047 32.7256 10.1053V8.53863C32.7256 8.13159 32.6181 7.82439 32.403 7.61703C32.1957 7.40967 31.9 7.30599 31.516 7.30599C31.1397 7.30599 30.844 7.40967 30.629 7.61703C30.4139 7.82439 30.3064 8.13159 30.3064 8.53863V10.1053C30.3064 10.5047 30.4139 10.8119 30.629 11.027C30.844 11.2343 31.1397 11.338 31.516 11.338ZM38.4235 12.6052C37.6171 12.6052 36.9835 12.3825 36.5227 11.937C36.0619 11.4839 35.8315 10.8695 35.8315 10.0938V6.15399H37.2715V10.0823C37.2715 10.4894 37.3713 10.8042 37.571 11.027C37.7707 11.242 38.0549 11.3495 38.4235 11.3495C38.7845 11.3495 39.0648 11.242 39.2645 11.027C39.4718 10.8042 39.5755 10.4894 39.5755 10.0823V6.15399H41.0155V10.0938C41.0155 10.8695 40.7813 11.4839 40.3128 11.937C39.8443 12.3825 39.2145 12.6052 38.4235 12.6052ZM42.9464 12.49V6.15399H44.3518V7.36359H44.7435L44.3518 7.69767C44.3518 7.18311 44.5092 6.77991 44.8241 6.48807C45.139 6.18855 45.5691 6.03879 46.1144 6.03879C46.7672 6.03879 47.2894 6.25383 47.6811 6.68391C48.0728 7.11399 48.2686 7.69383 48.2686 8.42343V8.94183H46.7595V8.52711C46.7595 8.13543 46.6558 7.83207 46.4484 7.61703C46.2488 7.39431 45.9569 7.28295 45.5729 7.28295C45.1889 7.28295 44.8932 7.39815 44.6859 7.62855C44.4862 7.85127 44.3864 8.17767 44.3864 8.60775V12.49H42.9464Z" fill="#B2519E"/>
<path d="M3.92055 26.4253C3.38295 26.4253 2.91063 26.3254 2.50359 26.1257C2.10423 25.9184 1.79319 25.6304 1.57047 25.2617C1.34775 24.8854 1.23639 24.4438 1.23639 23.9369V22.3472C1.23639 21.8326 1.34775 21.391 1.57047 21.0224C1.79319 20.6537 2.10423 20.3696 2.50359 20.1699C2.91063 19.9625 3.38295 19.8589 3.92055 19.8589C4.71927 19.8589 5.35671 20.0662 5.83287 20.4809C6.30903 20.888 6.55863 21.4448 6.58167 22.1513H5.17623C5.15319 21.8211 5.03031 21.5677 4.80759 21.391C4.58487 21.2067 4.28919 21.1145 3.92055 21.1145C3.53655 21.1145 3.23319 21.2221 3.01047 21.4371C2.78775 21.6445 2.67639 21.944 2.67639 22.3357V23.9369C2.67639 24.3286 2.78775 24.632 3.01047 24.847C3.23319 25.0621 3.53655 25.1696 3.92055 25.1696C4.28919 25.1696 4.58487 25.0813 4.80759 24.9046C5.03031 24.7203 5.15319 24.463 5.17623 24.1328H6.58167C6.55863 24.8393 6.30903 25.4 5.83287 25.8147C5.35671 26.2217 4.71927 26.4253 3.92055 26.4253ZM10.7935 26.4137C10.2559 26.4137 9.78741 26.3139 9.38805 26.1142C8.98869 25.9069 8.68149 25.6189 8.46645 25.2502C8.25141 24.8739 8.14389 24.4323 8.14389 23.9254V22.3587C8.14389 21.8518 8.25141 21.4141 8.46645 21.0454C8.68149 20.6691 8.98869 20.3811 9.38805 20.1814C9.78741 19.9741 10.2559 19.8704 10.7935 19.8704C11.3388 19.8704 11.8073 19.9741 12.1989 20.1814C12.5983 20.3811 12.9055 20.6691 13.1205 21.0454C13.3356 21.4141 13.4431 21.848 13.4431 22.3472V23.9254C13.4431 24.4323 13.3356 24.8739 13.1205 25.2502C12.9055 25.6189 12.5983 25.9069 12.1989 26.1142C11.8073 26.3139 11.3388 26.4137 10.7935 26.4137ZM10.7935 25.1581C11.1775 25.1581 11.4732 25.0544 11.6805 24.847C11.8956 24.632 12.0031 24.3248 12.0031 23.9254V22.3587C12.0031 21.9517 11.8956 21.6445 11.6805 21.4371C11.4732 21.2297 11.1775 21.1261 10.7935 21.1261C10.4172 21.1261 10.1215 21.2297 9.90645 21.4371C9.69141 21.6445 9.58389 21.9517 9.58389 22.3587V23.9254C9.58389 24.3248 9.69141 24.632 9.90645 24.847C10.1215 25.0544 10.4172 25.1581 10.7935 25.1581ZM14.8095 26.3101V19.9741H15.9845V20.8265H16.238L16.0306 21.0339C16.0306 20.6883 16.1304 20.408 16.3301 20.1929C16.5298 19.9702 16.7871 19.8589 17.102 19.8589C17.4245 19.8589 17.6933 19.9933 17.9084 20.2621C18.1234 20.5232 18.2309 20.8649 18.2309 21.2873L17.9544 20.8265H18.3461L18.1964 21.0339C18.1964 20.6883 18.3 20.408 18.5074 20.1929C18.7148 19.9702 18.9797 19.8589 19.3023 19.8589C19.6863 19.8589 19.9973 20.0086 20.2354 20.3081C20.4735 20.6077 20.5925 20.9993 20.5925 21.4832V26.3101H19.3484V21.5869C19.3484 21.3718 19.2984 21.2067 19.1986 21.0915C19.1064 20.9763 18.972 20.9187 18.7954 20.9187C18.6188 20.9187 18.4805 20.9763 18.3807 21.0915C18.2885 21.2067 18.2424 21.3718 18.2424 21.5869V26.3101H17.1596V21.5869C17.1596 21.3718 17.1096 21.2067 17.0098 21.0915C16.9176 20.9763 16.7832 20.9187 16.6066 20.9187C16.43 20.9187 16.2956 20.9763 16.2034 21.0915C16.1112 21.2067 16.0652 21.3718 16.0652 21.5869V26.3101H14.8095ZM22.0395 28.3837V19.9741H23.445V21.1145H23.7675L23.3643 21.8518C23.3643 21.2297 23.5295 20.7421 23.8597 20.3888C24.1899 20.0355 24.6315 19.8589 25.1845 19.8589C25.8143 19.8589 26.3173 20.0777 26.6936 20.5155C27.0699 20.9533 27.2581 21.5408 27.2581 22.2781V23.9945C27.2581 24.4861 27.1698 24.9161 26.9931 25.2848C26.8242 25.6457 26.5861 25.9261 26.2789 26.1257C25.9717 26.3254 25.6069 26.4253 25.1845 26.4253C24.6315 26.4253 24.1899 26.2486 23.8597 25.8953C23.5295 25.5344 23.3643 25.0467 23.3643 24.4323L23.7675 25.1696H23.445L23.4795 26.6096V28.3837H22.0395ZM24.6546 25.1811C25.0232 25.1811 25.3074 25.0736 25.5071 24.8585C25.7144 24.6435 25.8181 24.3363 25.8181 23.9369V22.3472C25.8181 21.9478 25.7144 21.6406 25.5071 21.4256C25.3074 21.2105 25.0232 21.103 24.6546 21.103C24.2859 21.103 23.9979 21.2144 23.7906 21.4371C23.5832 21.6598 23.4795 21.9747 23.4795 22.3817V23.9024C23.4795 24.3094 23.5832 24.6243 23.7906 24.847C23.9979 25.0697 24.2859 25.1811 24.6546 25.1811ZM31.516 26.4253C30.7096 26.4253 30.076 26.2025 29.6152 25.7571C29.1544 25.304 28.924 24.6896 28.924 23.9139V19.9741H30.364V23.9024C30.364 24.3094 30.4638 24.6243 30.6635 24.847C30.8632 25.0621 31.1474 25.1696 31.516 25.1696C31.877 25.1696 32.1573 25.0621 32.357 24.847C32.5643 24.6243 32.668 24.3094 32.668 23.9024V19.9741H34.108V23.9139C34.108 24.6896 33.8738 25.304 33.4053 25.7571C32.9368 26.2025 32.307 26.4253 31.516 26.4253ZM39.1147 26.3101C38.5233 26.3101 38.051 26.1411 37.6977 25.8032C37.3521 25.4576 37.1793 24.9929 37.1793 24.4093V21.2758H35.4629V19.9741H37.1793V18.1885H38.6309V19.9741H41.0616V21.2758H38.6309V24.3747C38.6309 24.559 38.6808 24.7126 38.7806 24.8355C38.8881 24.9507 39.0341 25.0083 39.2184 25.0083H40.9464V26.3101H39.1147ZM45.3425 26.4253C44.8049 26.4253 44.3364 26.3216 43.9371 26.1142C43.5377 25.9069 43.2267 25.6189 43.004 25.2502C42.7889 24.8739 42.6814 24.4361 42.6814 23.9369V22.3472C42.6814 21.848 42.7889 21.4141 43.004 21.0454C43.2267 20.6691 43.5377 20.3773 43.9371 20.1699C44.3364 19.9625 44.8049 19.8589 45.3425 19.8589C45.8724 19.8589 46.3332 19.9625 46.7249 20.1699C47.1243 20.3773 47.4315 20.6691 47.6465 21.0454C47.8692 21.4141 47.9806 21.848 47.9806 22.3472V23.4877H44.0753V23.9369C44.0753 24.3824 44.1828 24.7203 44.3979 24.9507C44.6129 25.1734 44.9316 25.2848 45.354 25.2848C45.6766 25.2848 45.9377 25.231 46.1374 25.1235C46.3371 25.0083 46.4638 24.8432 46.5176 24.6281H47.9345C47.827 25.1734 47.5352 25.6112 47.059 25.9414C46.5905 26.264 46.0184 26.4253 45.3425 26.4253ZM46.5867 22.6813V22.3357C46.5867 21.8979 46.483 21.5638 46.2756 21.3334C46.0683 21.0953 45.7572 20.9763 45.3425 20.9763C44.9278 20.9763 44.6129 21.0953 44.3979 21.3334C44.1828 21.5715 44.0753 21.9094 44.0753 22.3472V22.5891L46.6904 22.5661L46.5867 22.6813ZM49.8539 26.3101V19.9741H51.2593V21.1837H51.651L51.2593 21.5177C51.2593 21.0032 51.4167 20.6 51.7316 20.3081C52.0465 20.0086 52.4766 19.8589 53.0219 19.8589C53.6747 19.8589 54.1969 20.0739 54.5886 20.504C54.9803 20.9341 55.1761 21.5139 55.1761 22.2435V22.7619H53.667V22.3472C53.667 21.9555 53.5633 21.6521 53.3559 21.4371C53.1563 21.2144 52.8644 21.103 52.4804 21.103C52.0964 21.103 51.8007 21.2182 51.5934 21.4486C51.3937 21.6713 51.2939 21.9977 51.2939 22.4278V26.3101H49.8539Z" fill="#B2519E"/>
<path d="M111.884 240.38V231.97H116.93V233.238H113.301V235.426H116.526V236.648H113.301V239.113H116.93V240.38H111.884ZM122.259 240.38C121.844 240.38 121.479 240.296 121.164 240.127C120.857 239.958 120.615 239.72 120.439 239.412C120.262 239.097 120.174 238.736 120.174 238.329V233.272H118.089V231.97H121.614V238.283C121.614 238.529 121.679 238.725 121.809 238.871C121.948 239.009 122.132 239.078 122.362 239.078H124.217V240.38H122.259ZM128.153 240.495C127.615 240.495 127.146 240.392 126.747 240.184C126.348 239.977 126.037 239.689 125.814 239.32C125.599 238.944 125.491 238.506 125.491 238.007V236.417C125.491 235.918 125.599 235.484 125.814 235.115C126.037 234.739 126.348 234.447 126.747 234.24C127.146 234.032 127.615 233.929 128.153 233.929C128.682 233.929 129.143 234.032 129.535 234.24C129.934 234.447 130.241 234.739 130.457 235.115C130.679 235.484 130.791 235.918 130.791 236.417V237.558H126.885V238.007C126.885 238.452 126.993 238.79 127.208 239.021C127.423 239.243 127.742 239.355 128.164 239.355C128.487 239.355 128.748 239.301 128.947 239.193C129.147 239.078 129.274 238.913 129.328 238.698H130.745C130.637 239.243 130.345 239.681 129.869 240.011C129.401 240.334 128.828 240.495 128.153 240.495ZM129.397 236.751V236.406C129.397 235.968 129.293 235.634 129.086 235.403C128.878 235.165 128.567 235.046 128.153 235.046C127.738 235.046 127.423 235.165 127.208 235.403C126.993 235.641 126.885 235.979 126.885 236.417V236.659L129.5 236.636L129.397 236.751ZM132.157 240.38V234.044H133.332V234.896H133.585L133.378 235.104C133.378 234.758 133.478 234.478 133.678 234.263C133.877 234.04 134.135 233.929 134.449 233.929C134.772 233.929 135.041 234.063 135.256 234.332C135.471 234.593 135.578 234.935 135.578 235.357L135.302 234.896H135.694L135.544 235.104C135.544 234.758 135.648 234.478 135.855 234.263C136.062 234.04 136.327 233.929 136.65 233.929C137.034 233.929 137.345 234.079 137.583 234.378C137.821 234.678 137.94 235.069 137.94 235.553V240.38H136.696V235.657C136.696 235.442 136.646 235.277 136.546 235.161C136.454 235.046 136.32 234.989 136.143 234.989C135.966 234.989 135.828 235.046 135.728 235.161C135.636 235.277 135.59 235.442 135.59 235.657V240.38H134.507V235.657C134.507 235.442 134.457 235.277 134.357 235.161C134.265 235.046 134.131 234.989 133.954 234.989C133.777 234.989 133.643 235.046 133.551 235.161C133.459 235.277 133.413 235.442 133.413 235.657V240.38H132.157ZM141.968 240.495C141.43 240.495 140.961 240.392 140.562 240.184C140.163 239.977 139.852 239.689 139.629 239.32C139.414 238.944 139.306 238.506 139.306 238.007V236.417C139.306 235.918 139.414 235.484 139.629 235.115C139.852 234.739 140.163 234.447 140.562 234.24C140.961 234.032 141.43 233.929 141.968 233.929C142.497 233.929 142.958 234.032 143.35 234.24C143.749 234.447 144.056 234.739 144.272 235.115C144.494 235.484 144.606 235.918 144.606 236.417V237.558H140.7V238.007C140.7 238.452 140.808 238.79 141.023 239.021C141.238 239.243 141.557 239.355 141.979 239.355C142.302 239.355 142.563 239.301 142.762 239.193C142.962 239.078 143.089 238.913 143.143 238.698H144.56C144.452 239.243 144.16 239.681 143.684 240.011C143.216 240.334 142.643 240.495 141.968 240.495ZM143.212 236.751V236.406C143.212 235.968 143.108 235.634 142.901 235.403C142.693 235.165 142.382 235.046 141.968 235.046C141.553 235.046 141.238 235.165 141.023 235.403C140.808 235.641 140.7 235.979 140.7 236.417V236.659L143.315 236.636L143.212 236.751ZM146.295 240.38V234.044H147.7V235.254H148.092L147.7 235.588C147.7 235.073 147.85 234.67 148.149 234.378C148.456 234.079 148.875 233.929 149.405 233.929C150.027 233.929 150.522 234.136 150.891 234.551C151.267 234.966 151.455 235.522 151.455 236.221V240.38H150.015V236.371C150.015 235.987 149.916 235.691 149.716 235.484C149.516 235.277 149.24 235.173 148.887 235.173C148.526 235.173 148.241 235.28 148.034 235.496C147.834 235.711 147.735 236.018 147.735 236.417V240.38H146.295ZM156.462 240.38C155.871 240.38 155.399 240.211 155.045 239.873C154.7 239.528 154.527 239.063 154.527 238.479V235.346H152.81V234.044H154.527V232.258H155.978V234.044H158.409V235.346H155.978V238.445C155.978 238.629 156.028 238.783 156.128 238.905C156.236 239.021 156.382 239.078 156.566 239.078H158.294V240.38H156.462ZM162.437 240.484C161.953 240.484 161.526 240.407 161.158 240.253C160.789 240.1 160.501 239.888 160.294 239.62C160.094 239.343 159.994 239.017 159.994 238.64H161.446C161.446 238.863 161.534 239.036 161.711 239.159C161.895 239.274 162.141 239.332 162.448 239.332H162.943C163.297 239.332 163.562 239.266 163.738 239.136C163.923 239.005 164.015 238.825 164.015 238.594C164.015 238.372 163.93 238.195 163.761 238.064C163.592 237.926 163.35 237.834 163.036 237.788L162.149 237.673C161.488 237.573 160.989 237.366 160.651 237.051C160.321 236.736 160.156 236.31 160.156 235.772C160.156 235.173 160.355 234.72 160.755 234.413C161.162 234.098 161.749 233.94 162.517 233.94H162.955C163.677 233.94 164.253 234.098 164.683 234.413C165.113 234.728 165.328 235.15 165.328 235.68H163.877C163.877 235.496 163.796 235.353 163.635 235.254C163.473 235.146 163.243 235.092 162.943 235.092H162.506C162.198 235.092 161.964 235.154 161.803 235.277C161.642 235.392 161.561 235.557 161.561 235.772C161.561 236.164 161.841 236.402 162.402 236.486L163.301 236.624C164.015 236.717 164.545 236.924 164.89 237.247C165.244 237.561 165.42 237.999 165.42 238.56C165.42 239.167 165.209 239.639 164.787 239.977C164.372 240.315 163.758 240.484 162.943 240.484H162.437ZM173.925 240.38V231.97H175.365V234.044L175.33 235.254H175.722L175.33 235.588C175.33 235.073 175.48 234.67 175.779 234.378C176.086 234.079 176.505 233.929 177.035 233.929C177.657 233.929 178.152 234.136 178.521 234.551C178.897 234.966 179.085 235.522 179.085 236.221V240.38H177.645V236.371C177.645 235.987 177.546 235.691 177.346 235.484C177.146 235.277 176.87 235.173 176.517 235.173C176.156 235.173 175.871 235.28 175.664 235.496C175.464 235.711 175.365 236.018 175.365 236.417V240.38H173.925ZM183.401 240.484C182.863 240.484 182.395 240.384 181.996 240.184C181.596 239.977 181.289 239.689 181.074 239.32C180.859 238.944 180.751 238.502 180.751 237.995V236.429C180.751 235.922 180.859 235.484 181.074 235.115C181.289 234.739 181.596 234.451 181.996 234.251C182.395 234.044 182.863 233.94 183.401 233.94C183.946 233.94 184.415 234.044 184.806 234.251C185.206 234.451 185.513 234.739 185.728 235.115C185.943 235.484 186.051 235.918 186.051 236.417V237.995C186.051 238.502 185.943 238.944 185.728 239.32C185.513 239.689 185.206 239.977 184.806 240.184C184.415 240.384 183.946 240.484 183.401 240.484ZM183.401 239.228C183.785 239.228 184.081 239.124 184.288 238.917C184.503 238.702 184.611 238.395 184.611 237.995V236.429C184.611 236.022 184.503 235.714 184.288 235.507C184.081 235.3 183.785 235.196 183.401 235.196C183.025 235.196 182.729 235.3 182.514 235.507C182.299 235.714 182.191 236.022 182.191 236.429V237.995C182.191 238.395 182.299 238.702 182.514 238.917C182.729 239.124 183.025 239.228 183.401 239.228ZM190.067 240.484C189.583 240.484 189.157 240.407 188.788 240.253C188.419 240.1 188.131 239.888 187.924 239.62C187.724 239.343 187.624 239.017 187.624 238.64H189.076C189.076 238.863 189.164 239.036 189.341 239.159C189.525 239.274 189.771 239.332 190.078 239.332H190.573C190.927 239.332 191.192 239.266 191.368 239.136C191.553 239.005 191.645 238.825 191.645 238.594C191.645 238.372 191.56 238.195 191.391 238.064C191.222 237.926 190.981 237.834 190.666 237.788L189.779 237.673C189.118 237.573 188.619 237.366 188.281 237.051C187.951 236.736 187.786 236.31 187.786 235.772C187.786 235.173 187.985 234.72 188.385 234.413C188.792 234.098 189.379 233.94 190.147 233.94H190.585C191.307 233.94 191.883 234.098 192.313 234.413C192.743 234.728 192.958 235.15 192.958 235.68H191.507C191.507 235.496 191.426 235.353 191.265 235.254C191.103 235.146 190.873 235.092 190.573 235.092H190.136C189.829 235.092 189.594 235.154 189.433 235.277C189.272 235.392 189.191 235.557 189.191 235.772C189.191 236.164 189.471 236.402 190.032 236.486L190.931 236.624C191.645 236.717 192.175 236.924 192.52 237.247C192.874 237.561 193.05 237.999 193.05 238.56C193.05 239.167 192.839 239.639 192.417 239.977C192.002 240.315 191.388 240.484 190.573 240.484H190.067ZM197.907 240.38C197.316 240.38 196.844 240.211 196.49 239.873C196.145 239.528 195.972 239.063 195.972 238.479V235.346H194.255V234.044H195.972V232.258H197.423V234.044H199.854V235.346H197.423V238.445C197.423 238.629 197.473 238.783 197.573 238.905C197.681 239.021 197.827 239.078 198.011 239.078H199.739V240.38H197.907ZM204.135 240.495C203.597 240.495 203.129 240.392 202.73 240.184C202.33 239.977 202.019 239.689 201.796 239.32C201.581 238.944 201.474 238.506 201.474 238.007V236.417C201.474 235.918 201.581 235.484 201.796 235.115C202.019 234.739 202.33 234.447 202.73 234.24C203.129 234.032 203.597 233.929 204.135 233.929C204.665 233.929 205.126 234.032 205.517 234.24C205.917 234.447 206.224 234.739 206.439 235.115C206.662 235.484 206.773 235.918 206.773 236.417V237.558H202.868V238.007C202.868 238.452 202.975 238.79 203.19 239.021C203.405 239.243 203.724 239.355 204.147 239.355C204.469 239.355 204.73 239.301 204.93 239.193C205.13 239.078 205.256 238.913 205.31 238.698H206.727C206.619 239.243 206.328 239.681 205.851 240.011C205.383 240.334 204.811 240.495 204.135 240.495ZM205.379 236.751V236.406C205.379 235.968 205.275 235.634 205.068 235.403C204.861 235.165 204.55 235.046 204.135 235.046C203.72 235.046 203.405 235.165 203.19 235.403C202.975 235.641 202.868 235.979 202.868 236.417V236.659L205.483 236.636L205.379 236.751ZM210.455 240.495C209.841 240.495 209.341 240.276 208.957 239.839C208.573 239.401 208.381 238.813 208.381 238.076V236.36C208.381 235.615 208.573 235.023 208.957 234.585C209.341 234.148 209.841 233.929 210.455 233.929C211.023 233.929 211.469 234.109 211.791 234.47C212.114 234.824 212.275 235.307 212.275 235.922L211.872 235.184H212.206L212.16 233.744V231.97H213.6V240.38H212.195V239.24H211.872L212.275 238.502C212.275 239.124 212.114 239.612 211.791 239.965C211.469 240.319 211.023 240.495 210.455 240.495ZM210.996 239.251C211.365 239.251 211.649 239.14 211.849 238.917C212.056 238.694 212.16 238.379 212.16 237.972V236.452C212.16 236.045 212.056 235.73 211.849 235.507C211.649 235.284 211.365 235.173 210.996 235.173C210.628 235.173 210.34 235.28 210.132 235.496C209.925 235.711 209.821 236.018 209.821 236.417V238.007C209.821 238.406 209.925 238.713 210.132 238.928C210.34 239.144 210.628 239.251 210.996 239.251Z" fill="#B2519E"/>
<path d="M114.867 254.315C114.345 254.315 113.923 254.169 113.6 253.877C113.285 253.578 113.128 253.171 113.128 252.656L113.485 252.99H113.162V254.2H111.757V245.79H113.197V247.564L113.151 249.074H113.485L113.128 249.408C113.128 248.893 113.285 248.49 113.6 248.198C113.923 247.899 114.345 247.749 114.867 247.749C115.505 247.749 116.016 247.968 116.4 248.405C116.784 248.843 116.976 249.435 116.976 250.179V251.896C116.976 252.633 116.784 253.221 116.4 253.659C116.016 254.096 115.505 254.315 114.867 254.315ZM114.361 253.071C114.729 253.071 115.017 252.963 115.225 252.748C115.432 252.533 115.536 252.226 115.536 251.827V250.237C115.536 249.838 115.432 249.531 115.225 249.315C115.017 249.1 114.729 248.993 114.361 248.993C114 248.993 113.715 249.104 113.508 249.327C113.301 249.542 113.197 249.845 113.197 250.237V251.827C113.197 252.219 113.301 252.526 113.508 252.748C113.715 252.963 114 253.071 114.361 253.071ZM119.69 256.274L120.588 253.854L118.146 247.864H119.713L120.957 251.101C121.026 251.278 121.091 251.493 121.153 251.746C121.214 251.992 121.26 252.195 121.291 252.357C121.329 252.195 121.379 251.992 121.441 251.746C121.502 251.493 121.568 251.278 121.637 251.101L122.823 247.864H124.321L121.199 256.274H119.69ZM134.968 254.315C134.423 254.315 133.946 254.215 133.539 254.016C133.14 253.816 132.829 253.536 132.606 253.175C132.384 252.814 132.272 252.387 132.272 251.896H133.724C133.724 252.272 133.831 252.568 134.046 252.783C134.269 252.99 134.58 253.094 134.979 253.094C135.379 253.094 135.686 252.987 135.901 252.771C136.116 252.556 136.224 252.265 136.224 251.896V251.262C136.224 250.886 136.116 250.594 135.901 250.387C135.686 250.172 135.379 250.064 134.979 250.064H133.989V248.912L135.82 247.023H132.652V245.79H137.376V246.977L134.979 249.419V248.832C135.809 248.832 136.465 249.051 136.949 249.488C137.433 249.926 137.675 250.517 137.675 251.262V251.896C137.675 252.387 137.564 252.814 137.341 253.175C137.118 253.536 136.803 253.816 136.396 254.016C135.989 254.215 135.513 254.315 134.968 254.315ZM139.571 254.2V247.864H140.977V249.074H141.368L140.977 249.408C140.977 248.893 141.134 248.49 141.449 248.198C141.764 247.899 142.194 247.749 142.739 247.749C143.392 247.749 143.914 247.964 144.306 248.394C144.698 248.824 144.894 249.404 144.894 250.133V250.652H143.384V250.237C143.384 249.845 143.281 249.542 143.073 249.327C142.874 249.104 142.582 248.993 142.198 248.993C141.814 248.993 141.518 249.108 141.311 249.339C141.111 249.561 141.011 249.888 141.011 250.318V254.2H139.571ZM148.287 254.315C147.673 254.315 147.174 254.096 146.79 253.659C146.406 253.221 146.214 252.633 146.214 251.896V250.179C146.214 249.435 146.406 248.843 146.79 248.405C147.174 247.968 147.673 247.749 148.287 247.749C148.856 247.749 149.301 247.929 149.624 248.29C149.946 248.643 150.108 249.127 150.108 249.742L149.704 249.004H150.039L149.992 247.564V245.79H151.432V254.2H150.027V253.059H149.704L150.108 252.322C150.108 252.944 149.946 253.432 149.624 253.785C149.301 254.139 148.856 254.315 148.287 254.315ZM148.829 253.071C149.198 253.071 149.482 252.96 149.681 252.737C149.889 252.514 149.992 252.199 149.992 251.792V250.272C149.992 249.865 149.889 249.55 149.681 249.327C149.482 249.104 149.198 248.993 148.829 248.993C148.46 248.993 148.172 249.1 147.965 249.315C147.758 249.531 147.654 249.838 147.654 250.237V251.827C147.654 252.226 147.758 252.533 147.965 252.748C148.172 252.963 148.46 253.071 148.829 253.071ZM160.11 256.274V247.864H161.515V249.004H161.838L161.434 249.742C161.434 249.12 161.599 248.632 161.93 248.279C162.26 247.925 162.702 247.749 163.254 247.749C163.884 247.749 164.387 247.968 164.764 248.405C165.14 248.843 165.328 249.431 165.328 250.168V251.884C165.328 252.376 165.24 252.806 165.063 253.175C164.894 253.536 164.656 253.816 164.349 254.016C164.042 254.215 163.677 254.315 163.254 254.315C162.702 254.315 162.26 254.139 161.93 253.785C161.599 253.424 161.434 252.937 161.434 252.322L161.838 253.059H161.515L161.55 254.499V256.274H160.11ZM162.725 253.071C163.093 253.071 163.377 252.963 163.577 252.748C163.784 252.533 163.888 252.226 163.888 251.827V250.237C163.888 249.838 163.784 249.531 163.577 249.315C163.377 249.1 163.093 248.993 162.725 248.993C162.356 248.993 162.068 249.104 161.861 249.327C161.653 249.55 161.55 249.865 161.55 250.272V251.792C161.55 252.199 161.653 252.514 161.861 252.737C162.068 252.96 162.356 253.071 162.725 253.071ZM168.883 254.315C168.23 254.315 167.716 254.142 167.34 253.797C166.963 253.451 166.775 252.987 166.775 252.403C166.775 251.781 166.986 251.301 167.409 250.963C167.839 250.617 168.442 250.444 169.217 250.444H170.738V249.915C170.738 249.607 170.634 249.369 170.427 249.2C170.227 249.031 169.947 248.947 169.586 248.947C169.24 248.947 168.964 249.02 168.757 249.166C168.557 249.312 168.449 249.492 168.434 249.707H167.063C167.086 249.308 167.205 248.962 167.42 248.67C167.643 248.379 167.942 248.152 168.319 247.991C168.703 247.829 169.144 247.749 169.644 247.749C170.427 247.749 171.045 247.941 171.498 248.325C171.951 248.709 172.178 249.235 172.178 249.903V254.2H170.784V253.129H170.554L170.796 252.783C170.796 253.251 170.623 253.624 170.277 253.9C169.932 254.177 169.467 254.315 168.883 254.315ZM169.356 253.244C169.763 253.244 170.093 253.14 170.346 252.933C170.607 252.725 170.738 252.46 170.738 252.138V251.366H169.252C168.929 251.366 168.676 251.451 168.492 251.619C168.307 251.781 168.215 252 168.215 252.276C168.215 252.583 168.315 252.821 168.515 252.99C168.722 253.159 169.002 253.244 169.356 253.244ZM174.109 254.2V247.864H175.514V249.074H175.906L175.514 249.408C175.514 248.893 175.672 248.49 175.987 248.198C176.301 247.899 176.732 247.749 177.277 247.749C177.93 247.749 178.452 247.964 178.844 248.394C179.235 248.824 179.431 249.404 179.431 250.133V250.652H177.922V250.237C177.922 249.845 177.818 249.542 177.611 249.327C177.411 249.104 177.119 248.993 176.735 248.993C176.351 248.993 176.056 249.108 175.848 249.339C175.649 249.561 175.549 249.888 175.549 250.318V254.2H174.109ZM184.092 254.2C183.501 254.2 183.029 254.031 182.675 253.693C182.33 253.347 182.157 252.883 182.157 252.299V249.166H180.44V247.864H182.157V246.078H183.608V247.864H186.039V249.166H183.608V252.265C183.608 252.449 183.658 252.603 183.758 252.725C183.866 252.841 184.012 252.898 184.196 252.898H185.924V254.2H184.092ZM187.728 254.2V252.898H189.894V249.166H187.958V247.864H191.334V252.898H193.281V254.2H187.728ZM190.516 246.804C190.224 246.804 189.994 246.731 189.825 246.585C189.656 246.432 189.571 246.228 189.571 245.975C189.571 245.721 189.656 245.522 189.825 245.376C189.994 245.222 190.224 245.145 190.516 245.145C190.808 245.145 191.038 245.222 191.207 245.376C191.376 245.522 191.461 245.721 191.461 245.975C191.461 246.228 191.376 246.432 191.207 246.585C191.038 246.731 190.808 246.804 190.516 246.804ZM197.228 254.315C196.69 254.315 196.221 254.211 195.822 254.004C195.423 253.797 195.112 253.509 194.889 253.14C194.674 252.764 194.566 252.326 194.566 251.827V250.237C194.566 249.738 194.674 249.304 194.889 248.935C195.112 248.559 195.423 248.267 195.822 248.06C196.221 247.852 196.69 247.749 197.228 247.749C197.757 247.749 198.218 247.852 198.61 248.06C199.009 248.267 199.316 248.559 199.532 248.935C199.754 249.304 199.866 249.738 199.866 250.237V251.378H195.96V251.827C195.96 252.272 196.068 252.61 196.283 252.841C196.498 253.063 196.817 253.175 197.239 253.175C197.562 253.175 197.823 253.121 198.022 253.013C198.222 252.898 198.349 252.733 198.403 252.518H199.82C199.712 253.063 199.42 253.501 198.944 253.831C198.476 254.154 197.903 254.315 197.228 254.315ZM198.472 250.571V250.226C198.472 249.788 198.368 249.454 198.161 249.223C197.953 248.985 197.642 248.866 197.228 248.866C196.813 248.866 196.498 248.985 196.283 249.223C196.068 249.461 195.96 249.799 195.96 250.237V250.479L198.575 250.456L198.472 250.571ZM203.882 254.304C203.398 254.304 202.971 254.227 202.603 254.073C202.234 253.92 201.946 253.708 201.739 253.44C201.539 253.163 201.439 252.837 201.439 252.46H202.891C202.891 252.683 202.979 252.856 203.156 252.979C203.34 253.094 203.586 253.152 203.893 253.152H204.388C204.742 253.152 205.007 253.086 205.183 252.956C205.368 252.825 205.46 252.645 205.46 252.414C205.46 252.192 205.375 252.015 205.206 251.884C205.037 251.746 204.795 251.654 204.481 251.608L203.594 251.493C202.933 251.393 202.434 251.186 202.096 250.871C201.766 250.556 201.601 250.13 201.601 249.592C201.601 248.993 201.8 248.54 202.2 248.233C202.607 247.918 203.194 247.76 203.962 247.76H204.4C205.122 247.76 205.698 247.918 206.128 248.233C206.558 248.547 206.773 248.97 206.773 249.5H205.322C205.322 249.315 205.241 249.173 205.08 249.074C204.918 248.966 204.688 248.912 204.388 248.912H203.951C203.643 248.912 203.409 248.974 203.248 249.097C203.087 249.212 203.006 249.377 203.006 249.592C203.006 249.984 203.286 250.222 203.847 250.306L204.746 250.444C205.46 250.537 205.99 250.744 206.335 251.067C206.689 251.381 206.865 251.819 206.865 252.38C206.865 252.987 206.654 253.459 206.232 253.797C205.817 254.135 205.203 254.304 204.388 254.304H203.882Z" fill="#B2519E"/>
<path d="M28.55 103.04H36.58" stroke="#B2519E" stroke-miterlimit="10" stroke-linecap="round"/>
<path d="M86.03 115.71H185.55" stroke="#B2519E" stroke-miterlimit="10" stroke-linecap="round"/>
<path d="M86.03 121H185.55" stroke="#B2519E" stroke-miterlimit="10" stroke-linecap="round"/>
<path d="M86.03 126.29H185.55" stroke="#B2519E" stroke-miterlimit="10" stroke-linecap="round"/>
<path d="M27.36 131.58H185.55" stroke="#B2519E" stroke-miterlimit="10" stroke-linecap="round"/>
<path d="M27.36 136.87H185.55" stroke="#B2519E" stroke-miterlimit="10" stroke-linecap="round"/>
<path d="M27.36 142.16H185.55" stroke="#B2519E" stroke-miterlimit="10" stroke-linecap="round"/>
<path d="M27.36 147.45H185.55" stroke="#B2519E" stroke-miterlimit="10" stroke-linecap="round"/>
<path d="M27.36 152.74H185.55" stroke="#B2519E" stroke-miterlimit="10" stroke-linecap="round"/>
<path d="M27.36 158.03H137.95" stroke="#B2519E" stroke-miterlimit="10" stroke-linecap="round"/>
<path d="M28.55 105.62H36.58" stroke="#B2519E" stroke-miterlimit="10" stroke-linecap="round"/>
<path d="M28.55 108.2H36.58" stroke="#B2519E" stroke-miterlimit="10" stroke-linecap="round"/>
<path d="M33.03 83.7499L29.71 80.4199" stroke="#131023" stroke-miterlimit="10" stroke-linecap="round"/>
<path d="M29.71 83.7499L33.03 80.4199" stroke="#131023" stroke-miterlimit="10" stroke-linecap="round"/>
<path d="M114.06 61.2199C114.06 36.3099 89.94 16.1599 60.14 16.1599" stroke="#B2519E" stroke-width="2" stroke-miterlimit="10" stroke-linecap="round"/>
<path d="M51.23 197.78C51.23 222.69 75.35 242.84 105.15 242.84" stroke="#B2519E" stroke-width="2" stroke-miterlimit="10" stroke-linecap="round"/>
<path d="M62.88 176.82C65.9949 176.82 68.52 174.295 68.52 171.18C68.52 168.065 65.9949 165.54 62.88 165.54C59.7651 165.54 57.24 168.065 57.24 171.18C57.24 174.295 59.7651 176.82 62.88 176.82Z" fill="#B2519E"/>
<path d="M64.72 167.27H63.47C62.73 167.27 61.9 167.58 61.9 168.66C61.9 169.03 61.9 169.39 61.9 169.8H61.04V171.17H61.92V175.1H63.55V171.14H64.62L64.72 169.8H63.52C63.52 169.8 63.52 169.2 63.52 169.03C63.52 168.61 63.96 168.63 63.99 168.63C64.2 168.63 64.61 168.63 64.71 168.63V167.28L64.72 167.27Z" fill="#131023"/>
<path d="M74.19 174.47C75.35 174.59 76.39 174.28 77.33 173.58C76.35 173.51 75.69 173.01 75.33 172.11C75.5 172.11 75.66 172.12 75.81 172.12C75.97 172.12 76.12 172.1 76.28 172.05C75.79 171.93 75.38 171.68 75.06 171.29C74.74 170.9 74.58 170.45 74.58 169.92C74.89 170.09 75.2 170.17 75.54 170.18C74.97 169.77 74.66 169.22 74.6 168.53C74.56 168.1 74.68 167.71 74.88 167.33C76.05 168.69 77.51 169.46 79.31 169.57C79.3 169.48 79.29 169.4 79.28 169.32C79.21 168.78 79.35 168.3 79.65 167.85C79.87 167.53 80.16 167.28 80.51 167.12C80.86 166.96 81.23 166.89 81.61 166.93C82.12 166.99 82.57 167.2 82.93 167.56C82.96 167.59 82.99 167.59 83.03 167.58C83.48 167.49 83.9 167.32 84.29 167.1C84.29 167.1 84.31 167.1 84.32 167.1C84.14 167.59 83.85 167.98 83.4 168.26C83.81 168.22 84.21 168.12 84.6 167.94C84.6 167.96 84.6 167.97 84.59 167.97C84.39 168.25 84.16 168.51 83.91 168.75C83.81 168.84 83.7 168.92 83.59 169.01C83.57 169.02 83.55 169.05 83.55 169.08C83.59 169.82 83.47 170.53 83.24 171.23C82.91 172.25 82.36 173.12 81.57 173.86C80.82 174.56 79.93 175.03 78.93 175.26C78.33 175.4 77.71 175.46 77.09 175.42C76.37 175.37 75.68 175.22 75.02 174.92C74.74 174.79 74.47 174.64 74.2 174.5C74.2 174.5 74.19 174.5 74.18 174.5C74.18 174.5 74.18 174.49 74.18 174.48L74.19 174.47Z" fill="#B2519E"/>
<path d="M48.08 166.23H31.18C28.6671 166.23 26.63 168.267 26.63 170.78V171.57C26.63 174.083 28.6671 176.12 31.18 176.12H48.08C50.5929 176.12 52.63 174.083 52.63 171.57V170.78C52.63 168.267 50.5929 166.23 48.08 166.23Z" stroke="#B2519E" stroke-miterlimit="10"/>
</svg>
