<svg width="440" height="291" viewBox="0 0 440 291" fill="none" xmlns="http://www.w3.org/2000/svg">
<path d="M111.506 141.05V130.056H114.533C115.196 130.056 115.758 130.172 116.22 130.403C116.692 130.624 117.053 130.95 117.304 131.382C117.565 131.803 117.696 132.31 117.696 132.903C117.696 133.666 117.465 134.273 117.003 134.725C116.551 135.177 115.934 135.398 115.15 135.387V135.177C116.004 135.167 116.682 135.418 117.184 135.93C117.696 136.442 117.952 137.134 117.952 138.008C117.952 138.63 117.821 139.173 117.56 139.634C117.299 140.086 116.928 140.438 116.446 140.689C115.964 140.93 115.386 141.05 114.714 141.05H111.506ZM112.666 139.966H114.608C115.281 139.966 115.808 139.79 116.19 139.439C116.581 139.077 116.777 138.59 116.777 137.978C116.777 137.345 116.581 136.838 116.19 136.457C115.808 136.065 115.281 135.869 114.608 135.869H112.666V139.966ZM112.666 134.83H114.533C115.145 134.83 115.627 134.665 115.979 134.333C116.33 134.002 116.506 133.55 116.506 132.978C116.506 132.406 116.33 131.959 115.979 131.638C115.637 131.306 115.155 131.141 114.533 131.141H112.666V134.83ZM123.563 141.201C122.629 141.201 121.881 140.92 121.319 140.357C120.767 139.795 120.491 139.032 120.491 138.068V132.767H121.681V138.068C121.681 138.721 121.846 139.233 122.178 139.604C122.519 139.966 122.981 140.146 123.563 140.146C124.155 140.146 124.622 139.966 124.964 139.604C125.305 139.233 125.476 138.721 125.476 138.068V132.767H126.665V138.068C126.665 139.032 126.384 139.795 125.822 140.357C125.26 140.92 124.507 141.201 123.563 141.201ZM132.307 141.186C131.765 141.186 131.278 141.095 130.846 140.915C130.425 140.734 130.088 140.478 129.837 140.146C129.596 139.815 129.471 139.429 129.461 138.987H130.681C130.701 139.328 130.861 139.604 131.163 139.815C131.474 140.016 131.865 140.116 132.337 140.116H133.06C133.602 140.116 134.009 140.001 134.28 139.77C134.561 139.529 134.702 139.213 134.702 138.821C134.702 138.45 134.576 138.148 134.325 137.918C134.074 137.687 133.723 137.536 133.271 137.466L132.021 137.27C131.228 137.139 130.635 136.883 130.244 136.502C129.852 136.12 129.657 135.603 129.657 134.951C129.657 134.218 129.897 133.651 130.379 133.249C130.871 132.837 131.559 132.632 132.443 132.632H133.03C133.843 132.632 134.501 132.822 135.003 133.204C135.505 133.575 135.766 134.072 135.786 134.695H134.566C134.546 134.394 134.395 134.153 134.114 133.972C133.843 133.791 133.472 133.701 133 133.701H132.412C131.921 133.701 131.534 133.811 131.253 134.032C130.972 134.253 130.831 134.559 130.831 134.951C130.831 135.613 131.288 136.015 132.202 136.156L133.437 136.351C134.26 136.482 134.872 136.743 135.274 137.134C135.675 137.516 135.876 138.053 135.876 138.746C135.876 139.499 135.635 140.096 135.153 140.538C134.671 140.97 133.969 141.186 133.045 141.186H132.307ZM138.446 141.05V139.966H141.397V133.851H138.762V132.767H142.602V139.966H145.403V141.05H138.446ZM141.864 131.246C141.553 131.246 141.302 131.166 141.111 131.005C140.931 130.844 140.84 130.624 140.84 130.342C140.84 130.051 140.931 129.82 141.111 129.65C141.302 129.479 141.553 129.394 141.864 129.394C142.176 129.394 142.422 129.479 142.602 129.65C142.793 129.82 142.888 130.051 142.888 130.342C142.888 130.613 142.793 130.834 142.602 131.005C142.422 131.166 142.176 131.246 141.864 131.246ZM147.611 141.05V132.767H148.801V134.303H149.102L148.771 134.74C148.771 134.077 148.972 133.56 149.373 133.189C149.785 132.807 150.342 132.616 151.045 132.616C151.868 132.616 152.526 132.877 153.018 133.4C153.51 133.912 153.756 134.609 153.756 135.493V141.05H152.566V135.628C152.566 134.996 152.4 134.509 152.069 134.168C151.738 133.826 151.286 133.656 150.714 133.656C150.121 133.656 149.654 133.836 149.313 134.198C148.972 134.559 148.801 135.071 148.801 135.734V141.05H147.611ZM159.699 141.201C159.056 141.201 158.499 141.075 158.027 140.824C157.555 140.563 157.189 140.197 156.928 139.725C156.667 139.253 156.536 138.706 156.536 138.083V135.734C156.536 135.101 156.667 134.554 156.928 134.092C157.189 133.62 157.555 133.259 158.027 133.008C158.499 132.747 159.056 132.616 159.699 132.616C160.341 132.616 160.898 132.747 161.37 133.008C161.842 133.259 162.209 133.62 162.47 134.092C162.731 134.554 162.861 135.101 162.861 135.734V137.195H157.711V138.083C157.711 138.756 157.881 139.278 158.223 139.649C158.574 140.011 159.066 140.192 159.699 140.192C160.231 140.192 160.662 140.086 160.994 139.875C161.335 139.665 161.551 139.358 161.641 138.957H162.831C162.721 139.649 162.384 140.197 161.822 140.598C161.26 141 160.552 141.201 159.699 141.201ZM161.687 136.397V135.734C161.687 135.061 161.516 134.544 161.174 134.183C160.833 133.811 160.341 133.625 159.699 133.625C159.066 133.625 158.574 133.811 158.223 134.183C157.881 134.544 157.711 135.061 157.711 135.734V136.261H161.807L161.687 136.397ZM168.428 141.186C167.885 141.186 167.398 141.095 166.967 140.915C166.545 140.734 166.209 140.478 165.958 140.146C165.717 139.815 165.591 139.429 165.581 138.987H166.801C166.821 139.328 166.982 139.604 167.283 139.815C167.594 140.016 167.986 140.116 168.458 140.116H169.181C169.723 140.116 170.129 140.001 170.4 139.77C170.682 139.529 170.822 139.213 170.822 138.821C170.822 138.45 170.697 138.148 170.446 137.918C170.195 137.687 169.843 137.536 169.391 137.466L168.141 137.27C167.348 137.139 166.756 136.883 166.364 136.502C165.973 136.12 165.777 135.603 165.777 134.951C165.777 134.218 166.018 133.651 166.5 133.249C166.992 132.837 167.68 132.632 168.563 132.632H169.15C169.964 132.632 170.621 132.822 171.123 133.204C171.625 133.575 171.886 134.072 171.906 134.695H170.687C170.666 134.394 170.516 134.153 170.235 133.972C169.964 133.791 169.592 133.701 169.12 133.701H168.533C168.041 133.701 167.654 133.811 167.373 134.032C167.092 134.253 166.952 134.559 166.952 134.951C166.952 135.613 167.408 136.015 168.322 136.156L169.557 136.351C170.38 136.482 170.993 136.743 171.394 137.134C171.796 137.516 171.997 138.053 171.997 138.746C171.997 139.499 171.756 140.096 171.274 140.538C170.792 140.97 170.089 141.186 169.165 141.186H168.428ZM177.458 141.186C176.915 141.186 176.429 141.095 175.997 140.915C175.575 140.734 175.239 140.478 174.988 140.146C174.747 139.815 174.621 139.429 174.611 138.987H175.831C175.851 139.328 176.012 139.604 176.313 139.815C176.624 140.016 177.016 140.116 177.488 140.116H178.211C178.753 140.116 179.159 140.001 179.431 139.77C179.712 139.529 179.852 139.213 179.852 138.821C179.852 138.45 179.727 138.148 179.476 137.918C179.225 137.687 178.873 137.536 178.421 137.466L177.172 137.27C176.378 137.139 175.786 136.883 175.394 136.502C175.003 136.12 174.807 135.603 174.807 134.951C174.807 134.218 175.048 133.651 175.53 133.249C176.022 132.837 176.71 132.632 177.593 132.632H178.181C178.994 132.632 179.651 132.822 180.153 133.204C180.655 133.575 180.916 134.072 180.937 134.695H179.717C179.697 134.394 179.546 134.153 179.265 133.972C178.994 133.791 178.622 133.701 178.15 133.701H177.563C177.071 133.701 176.685 133.811 176.403 134.032C176.122 134.253 175.982 134.559 175.982 134.951C175.982 135.613 176.439 136.015 177.352 136.156L178.587 136.351C179.41 136.482 180.023 136.743 180.424 137.134C180.826 137.516 181.027 138.053 181.027 138.746C181.027 139.499 180.786 140.096 180.304 140.538C179.822 140.97 179.119 141.186 178.196 141.186H177.458Z" fill="#B2519E"/>
<path d="M111.762 159.12L110.467 148.126H111.596L112.485 156.259C112.505 156.469 112.525 156.7 112.545 156.951C112.575 157.192 112.6 157.433 112.62 157.674C112.64 157.905 112.65 158.101 112.65 158.262C112.671 158.101 112.691 157.905 112.711 157.674C112.741 157.433 112.771 157.192 112.801 156.951C112.831 156.7 112.861 156.469 112.891 156.259L113.946 148.126H115.226L116.205 156.259C116.235 156.469 116.265 156.7 116.295 156.951C116.325 157.192 116.355 157.433 116.385 157.674C116.415 157.905 116.436 158.101 116.446 158.262C116.466 158.101 116.486 157.905 116.506 157.674C116.526 157.433 116.551 157.192 116.581 156.951C116.611 156.7 116.636 156.469 116.656 156.259L117.53 148.126H118.629L117.319 159.12H115.783L114.804 150.912C114.774 150.681 114.744 150.445 114.714 150.204C114.694 149.964 114.669 149.738 114.638 149.527C114.618 149.306 114.598 149.125 114.578 148.985C114.568 149.125 114.548 149.301 114.518 149.512C114.488 149.723 114.458 149.953 114.428 150.204C114.407 150.445 114.382 150.681 114.352 150.912L113.283 159.12H111.762ZM123.578 159.271C122.936 159.271 122.378 159.145 121.906 158.894C121.435 158.633 121.068 158.267 120.807 157.795C120.546 157.323 120.416 156.776 120.416 156.153V153.804C120.416 153.171 120.546 152.624 120.807 152.162C121.068 151.69 121.435 151.329 121.906 151.078C122.378 150.817 122.936 150.686 123.578 150.686C124.221 150.686 124.778 150.817 125.25 151.078C125.722 151.329 126.088 151.69 126.349 152.162C126.61 152.624 126.741 153.171 126.741 153.804V155.265H121.59V156.153C121.59 156.826 121.761 157.348 122.102 157.719C122.454 158.081 122.946 158.262 123.578 158.262C124.11 158.262 124.542 158.156 124.873 157.945C125.215 157.734 125.431 157.428 125.521 157.027H126.711C126.6 157.719 126.264 158.267 125.702 158.668C125.139 159.07 124.432 159.271 123.578 159.271ZM125.566 154.466V153.804C125.566 153.131 125.395 152.614 125.054 152.253C124.713 151.881 124.221 151.695 123.578 151.695C122.946 151.695 122.454 151.881 122.102 152.253C121.761 152.614 121.59 153.131 121.59 153.804V154.331H125.687L125.566 154.466ZM133.015 159.271C132.322 159.271 131.76 159.085 131.328 158.713C130.906 158.332 130.696 157.815 130.696 157.162L131.057 157.659H130.741V159.12H129.551V148.126H130.741V150.491L130.726 152.298H131.012L130.696 152.795C130.696 152.152 130.912 151.64 131.343 151.259C131.775 150.877 132.332 150.686 133.015 150.686C133.848 150.686 134.516 150.962 135.018 151.515C135.52 152.067 135.771 152.815 135.771 153.759V156.213C135.771 157.147 135.52 157.89 135.018 158.442C134.516 158.994 133.848 159.271 133.015 159.271ZM132.638 158.231C133.241 158.231 133.713 158.051 134.054 157.689C134.395 157.328 134.566 156.816 134.566 156.153V153.804C134.566 153.141 134.395 152.629 134.054 152.268C133.713 151.906 133.241 151.726 132.638 151.726C132.056 151.726 131.594 151.911 131.253 152.283C130.912 152.644 130.741 153.151 130.741 153.804V156.153C130.741 156.806 130.912 157.318 131.253 157.689C131.594 158.051 132.056 158.231 132.638 158.231ZM141.337 159.256C140.795 159.256 140.308 159.165 139.876 158.984C139.455 158.804 139.118 158.548 138.867 158.216C138.626 157.885 138.501 157.499 138.491 157.057H139.711C139.731 157.398 139.891 157.674 140.193 157.885C140.504 158.086 140.895 158.186 141.367 158.186H142.09C142.632 158.186 143.039 158.071 143.31 157.84C143.591 157.599 143.732 157.283 143.732 156.891C143.732 156.52 143.606 156.218 143.355 155.988C143.104 155.757 142.753 155.606 142.301 155.536L141.051 155.34C140.258 155.209 139.666 154.953 139.274 154.572C138.882 154.19 138.687 153.673 138.687 153.021C138.687 152.288 138.928 151.721 139.41 151.319C139.901 150.907 140.589 150.701 141.473 150.701H142.06C142.873 150.701 143.531 150.892 144.033 151.274C144.535 151.645 144.796 152.142 144.816 152.765H143.596C143.576 152.463 143.426 152.223 143.144 152.042C142.873 151.861 142.502 151.771 142.03 151.771H141.443C140.951 151.771 140.564 151.881 140.283 152.102C140.002 152.323 139.861 152.629 139.861 153.021C139.861 153.683 140.318 154.085 141.232 154.225L142.467 154.421C143.29 154.552 143.902 154.813 144.304 155.204C144.706 155.586 144.906 156.123 144.906 156.816C144.906 157.569 144.665 158.166 144.184 158.608C143.702 159.04 142.999 159.256 142.075 159.256H141.337ZM147.476 159.12V158.036H150.428V151.921H147.792V150.837H151.632V158.036H154.433V159.12H147.476ZM150.894 149.316C150.583 149.316 150.332 149.236 150.141 149.075C149.961 148.914 149.87 148.693 149.87 148.412C149.87 148.121 149.961 147.89 150.141 147.72C150.332 147.549 150.583 147.464 150.894 147.464C151.206 147.464 151.452 147.549 151.632 147.72C151.823 147.89 151.918 148.121 151.918 148.412C151.918 148.683 151.823 148.904 151.632 149.075C151.452 149.236 151.206 149.316 150.894 149.316ZM160.602 159.12C159.93 159.12 159.397 158.934 159.006 158.563C158.614 158.181 158.419 157.664 158.419 157.012V151.921H156.069V150.837H158.419V148.503H159.623V150.837H162.952V151.921H159.623V157.012C159.623 157.323 159.709 157.574 159.879 157.765C160.06 157.945 160.301 158.036 160.602 158.036H162.801V159.12H160.602ZM168.729 159.271C168.086 159.271 167.529 159.145 167.057 158.894C166.585 158.633 166.219 158.267 165.958 157.795C165.697 157.323 165.566 156.776 165.566 156.153V153.804C165.566 153.171 165.697 152.624 165.958 152.162C166.219 151.69 166.585 151.329 167.057 151.078C167.529 150.817 168.086 150.686 168.729 150.686C169.371 150.686 169.929 150.817 170.4 151.078C170.872 151.329 171.239 151.69 171.5 152.162C171.761 152.624 171.891 153.171 171.891 153.804V155.265H166.741V156.153C166.741 156.826 166.911 157.348 167.253 157.719C167.604 158.081 168.096 158.262 168.729 158.262C169.261 158.262 169.693 158.156 170.024 157.945C170.365 157.734 170.581 157.428 170.671 157.027H171.861C171.751 157.719 171.414 158.267 170.852 158.668C170.29 159.07 169.582 159.271 168.729 159.271ZM170.717 154.466V153.804C170.717 153.131 170.546 152.614 170.205 152.253C169.863 151.881 169.371 151.695 168.729 151.695C168.096 151.695 167.604 151.881 167.253 152.253C166.911 152.614 166.741 153.131 166.741 153.804V154.331H170.837L170.717 154.466Z" fill="#B2519E"/>
<path d="M0.88704 12V3.5904H3.46752C4.00512 3.5904 4.46976 3.67872 4.86144 3.85536C5.2608 4.032 5.568 4.28544 5.78304 4.61568C6.00576 4.93824 6.11712 5.3184 6.11712 5.75616C6.11712 6.3168 5.94048 6.76608 5.5872 7.104C5.2416 7.44192 4.77312 7.61088 4.18176 7.61088V7.49568C4.8192 7.48032 5.33376 7.66848 5.72544 8.06016C6.11712 8.44416 6.31296 8.95872 6.31296 9.60384C6.31296 10.0877 6.19776 10.5101 5.96736 10.871C5.74464 11.232 5.42976 11.5123 5.02272 11.712C4.62336 11.904 4.1472 12 3.59424 12H0.88704ZM2.29248 10.8019H3.50208C3.92448 10.8019 4.25472 10.6906 4.4928 10.4678C4.73856 10.2374 4.86144 9.9264 4.86144 9.53472C4.86144 9.14304 4.73856 8.82816 4.4928 8.59008C4.25472 8.34432 3.92448 8.22144 3.50208 8.22144H2.29248V10.8019ZM2.29248 7.05792H3.44448C3.82848 7.05792 4.128 6.95808 4.34304 6.7584C4.56576 6.55104 4.67712 6.27072 4.67712 5.91744C4.67712 5.56416 4.56576 5.28768 4.34304 5.088C4.128 4.88832 3.82848 4.78848 3.44448 4.78848H2.29248V7.05792ZM10.3635 12.1152C9.5571 12.1152 8.9235 11.8925 8.4627 11.447C8.0019 10.9939 7.7715 10.3795 7.7715 9.60384V5.664H9.2115V9.59232C9.2115 9.99936 9.31134 10.3142 9.51102 10.537C9.7107 10.752 9.99486 10.8595 10.3635 10.8595C10.7245 10.8595 11.0048 10.752 11.2045 10.537C11.4118 10.3142 11.5155 9.99936 11.5155 9.59232V5.664H12.9555V9.60384C12.9555 10.3795 12.7213 10.9939 12.2528 11.447C11.7843 11.8925 11.1545 12.1152 10.3635 12.1152ZM17.0291 12.1037C16.5452 12.1037 16.119 12.0269 15.7504 11.8733C15.3817 11.7197 15.0937 11.5085 14.8864 11.2397C14.6867 10.9632 14.5868 10.6368 14.5868 10.2605H16.0384C16.0384 10.4832 16.1267 10.656 16.3033 10.7789C16.4876 10.8941 16.7334 10.9517 17.0406 10.9517H17.536C17.8892 10.9517 18.1542 10.8864 18.3308 10.7558C18.5152 10.6253 18.6073 10.4448 18.6073 10.2144C18.6073 9.99168 18.5228 9.81504 18.3539 9.68448C18.1849 9.54624 17.943 9.45408 17.6281 9.408L16.7411 9.2928C16.0806 9.19296 15.5814 8.9856 15.2435 8.67072C14.9132 8.35584 14.7481 7.9296 14.7481 7.392C14.7481 6.79296 14.9478 6.33984 15.3472 6.03264C15.7542 5.71776 16.3417 5.56032 17.1097 5.56032H17.5475C18.2694 5.56032 18.8454 5.71776 19.2755 6.03264C19.7056 6.34752 19.9206 6.76992 19.9206 7.29984H18.4691C18.4691 7.11552 18.3884 6.97344 18.2272 6.8736C18.0659 6.76608 17.8355 6.71232 17.536 6.71232H17.0982C16.791 6.71232 16.5568 6.77376 16.3955 6.89664C16.2342 7.01184 16.1536 7.17696 16.1536 7.392C16.1536 7.78368 16.4339 8.02176 16.9945 8.10624L17.8931 8.24448C18.6073 8.33664 19.1372 8.544 19.4828 8.86656C19.8361 9.18144 20.0128 9.6192 20.0128 10.1798C20.0128 10.7866 19.8016 11.2589 19.3792 11.5968C18.9644 11.9347 18.35 12.1037 17.536 12.1037H17.0291ZM21.598 12V10.6982H23.7638V6.96576H21.8284V5.664H25.2038V10.6982H27.1507V12H21.598ZM24.3859 4.60416C24.094 4.60416 23.8636 4.5312 23.6947 4.38528C23.5257 4.23168 23.4412 4.02816 23.4412 3.77472C23.4412 3.52128 23.5257 3.3216 23.6947 3.17568C23.8636 3.02208 24.094 2.94528 24.3859 2.94528C24.6777 2.94528 24.9081 3.02208 25.0771 3.17568C25.246 3.3216 25.3305 3.52128 25.3305 3.77472C25.3305 4.02816 25.246 4.23168 25.0771 4.38528C24.9081 4.5312 24.6777 4.60416 24.3859 4.60416ZM28.517 12V5.664H29.9225V6.8736H30.3142L29.9225 7.20768C29.9225 6.69312 30.0722 6.28992 30.3718 5.99808C30.679 5.69856 31.0975 5.5488 31.6274 5.5488C32.2495 5.5488 32.7449 5.75616 33.1135 6.17088C33.4898 6.5856 33.678 7.1424 33.678 7.84128V12H32.238V7.99104C32.238 7.60704 32.1382 7.31136 31.9385 7.104C31.7388 6.89664 31.4623 6.79296 31.109 6.79296C30.7481 6.79296 30.4639 6.90048 30.2566 7.11552C30.0569 7.33056 29.957 7.63776 29.957 8.03712V12H28.517ZM38.005 12.1152C37.4674 12.1152 36.9989 12.0115 36.5996 11.8042C36.2002 11.5968 35.8892 11.3088 35.6665 10.9402C35.4514 10.5638 35.3439 10.1261 35.3439 9.62688V8.03712C35.3439 7.53792 35.4514 7.104 35.6665 6.73536C35.8892 6.35904 36.2002 6.0672 36.5996 5.85984C36.9989 5.65248 37.4674 5.5488 38.005 5.5488C38.5349 5.5488 38.9957 5.65248 39.3874 5.85984C39.7868 6.0672 40.094 6.35904 40.309 6.73536C40.5317 7.104 40.6431 7.53792 40.6431 8.03712V9.1776H36.7378V9.62688C36.7378 10.0723 36.8453 10.4102 37.0604 10.6406C37.2754 10.8634 37.5941 10.9747 38.0165 10.9747C38.3391 10.9747 38.6002 10.921 38.7999 10.8134C38.9996 10.6982 39.1263 10.5331 39.1801 10.3181H40.597C40.4895 10.8634 40.1977 11.3011 39.7215 11.6314C39.253 11.9539 38.6809 12.1152 38.005 12.1152ZM39.2492 8.3712V8.0256C39.2492 7.58784 39.1455 7.25376 38.9381 7.02336C38.7308 6.78528 38.4197 6.66624 38.005 6.66624C37.5903 6.66624 37.2754 6.78528 37.0604 7.02336C36.8453 7.26144 36.7378 7.59936 36.7378 8.03712V8.27904L39.3529 8.256L39.2492 8.3712ZM44.6591 12.1037C44.1752 12.1037 43.749 12.0269 43.3804 11.8733C43.0117 11.7197 42.7237 11.5085 42.5164 11.2397C42.3167 10.9632 42.2168 10.6368 42.2168 10.2605H43.6684C43.6684 10.4832 43.7567 10.656 43.9333 10.7789C44.1176 10.8941 44.3634 10.9517 44.6706 10.9517H45.166C45.5192 10.9517 45.7842 10.8864 45.9608 10.7558C46.1452 10.6253 46.2373 10.4448 46.2373 10.2144C46.2373 9.99168 46.1528 9.81504 45.9839 9.68448C45.8149 9.54624 45.573 9.45408 45.2581 9.408L44.3711 9.2928C43.7106 9.19296 43.2114 8.9856 42.8735 8.67072C42.5432 8.35584 42.3781 7.9296 42.3781 7.392C42.3781 6.79296 42.5778 6.33984 42.9772 6.03264C43.3842 5.71776 43.9717 5.56032 44.7397 5.56032H45.1775C45.8994 5.56032 46.4754 5.71776 46.9055 6.03264C47.3356 6.34752 47.5506 6.76992 47.5506 7.29984H46.0991C46.0991 7.11552 46.0184 6.97344 45.8572 6.8736C45.6959 6.76608 45.4655 6.71232 45.166 6.71232H44.7282C44.421 6.71232 44.1868 6.77376 44.0255 6.89664C43.8642 7.01184 43.7836 7.17696 43.7836 7.392C43.7836 7.78368 44.0639 8.02176 44.6245 8.10624L45.5231 8.24448C46.2373 8.33664 46.7672 8.544 47.1128 8.86656C47.4661 9.18144 47.6428 9.6192 47.6428 10.1798C47.6428 10.7866 47.4316 11.2589 47.0092 11.5968C46.5944 11.9347 45.98 12.1037 45.166 12.1037H44.6591ZM51.5666 12.1037C51.0827 12.1037 50.6565 12.0269 50.2879 11.8733C49.9192 11.7197 49.6312 11.5085 49.4239 11.2397C49.2242 10.9632 49.1243 10.6368 49.1243 10.2605H50.5759C50.5759 10.4832 50.6642 10.656 50.8408 10.7789C51.0251 10.8941 51.2709 10.9517 51.5781 10.9517H52.0735C52.4267 10.9517 52.6917 10.8864 52.8683 10.7558C53.0527 10.6253 53.1448 10.4448 53.1448 10.2144C53.1448 9.99168 53.0603 9.81504 52.8914 9.68448C52.7224 9.54624 52.4805 9.45408 52.1656 9.408L51.2786 9.2928C50.6181 9.19296 50.1189 8.9856 49.781 8.67072C49.4507 8.35584 49.2856 7.9296 49.2856 7.392C49.2856 6.79296 49.4853 6.33984 49.8847 6.03264C50.2917 5.71776 50.8792 5.56032 51.6472 5.56032H52.085C52.8069 5.56032 53.3829 5.71776 53.813 6.03264C54.2431 6.34752 54.4581 6.76992 54.4581 7.29984H53.0066C53.0066 7.11552 52.9259 6.97344 52.7647 6.8736C52.6034 6.76608 52.373 6.71232 52.0735 6.71232H51.6357C51.3285 6.71232 51.0943 6.77376 50.933 6.89664C50.7717 7.01184 50.6911 7.17696 50.6911 7.392C50.6911 7.78368 50.9714 8.02176 51.532 8.10624L52.4306 8.24448C53.1448 8.33664 53.6747 8.544 54.0203 8.86656C54.3736 9.18144 54.5503 9.6192 54.5503 10.1798C54.5503 10.7866 54.3391 11.2589 53.9167 11.5968C53.5019 11.9347 52.8875 12.1037 52.0735 12.1037H51.5666Z" fill="#B2519E"/>
<path d="M0.88704 27.8937V19.4841H2.29248V20.6245H2.61504L2.21184 21.3618C2.21184 20.7397 2.37696 20.2521 2.7072 19.8988C3.03744 19.5455 3.47904 19.3689 4.032 19.3689C4.66176 19.3689 5.1648 19.5877 5.54112 20.0255C5.91744 20.4633 6.1056 21.0508 6.1056 21.7881V23.5045C6.1056 23.9961 6.01728 24.4261 5.84064 24.7948C5.67168 25.1557 5.4336 25.4361 5.1264 25.6357C4.8192 25.8354 4.4544 25.9353 4.032 25.9353C3.47904 25.9353 3.03744 25.7586 2.7072 25.4053C2.37696 25.0444 2.21184 24.5567 2.21184 23.9423L2.61504 24.6796H2.29248L2.32704 26.1196V27.8937H0.88704ZM3.50208 24.6911C3.87072 24.6911 4.15488 24.5836 4.35456 24.3685C4.56192 24.1535 4.6656 23.8463 4.6656 23.4469V21.8572C4.6656 21.4578 4.56192 21.1506 4.35456 20.9356C4.15488 20.7205 3.87072 20.613 3.50208 20.613C3.13344 20.613 2.84544 20.7244 2.63808 20.9471C2.43072 21.1698 2.32704 21.4847 2.32704 21.8917V23.4124C2.32704 23.8194 2.43072 24.1343 2.63808 24.357C2.84544 24.5797 3.13344 24.6911 3.50208 24.6911ZM9.66078 25.9353C9.00798 25.9353 8.49342 25.7625 8.1171 25.4169C7.74078 25.0713 7.55262 24.6066 7.55262 24.0229C7.55262 23.4009 7.76382 22.9209 8.18622 22.5829C8.6163 22.2373 9.21918 22.0645 9.99486 22.0645H11.5155V21.5346C11.5155 21.2274 11.4118 20.9893 11.2045 20.8204C11.0048 20.6514 10.7245 20.5669 10.3635 20.5669C10.0179 20.5669 9.74142 20.6399 9.53406 20.7858C9.33438 20.9317 9.22686 21.1122 9.2115 21.3273H7.84062C7.86366 20.9279 7.9827 20.5823 8.19774 20.2905C8.42046 19.9986 8.71998 19.7721 9.0963 19.6108C9.4803 19.4495 9.9219 19.3689 10.4211 19.3689C11.2045 19.3689 11.8227 19.5609 12.2758 19.9449C12.7289 20.3289 12.9555 20.8549 12.9555 21.5231V25.8201H11.5616V24.7487H11.3312L11.5731 24.4031C11.5731 24.8716 11.4003 25.2441 11.0547 25.5205C10.7091 25.797 10.2445 25.9353 9.66078 25.9353ZM10.1331 24.8639C10.5401 24.8639 10.8704 24.7602 11.1238 24.5529C11.3849 24.3455 11.5155 24.0805 11.5155 23.758V22.9861H10.0294C9.70686 22.9861 9.45342 23.0706 9.2691 23.2396C9.08478 23.4009 8.99262 23.6197 8.99262 23.8962C8.99262 24.2034 9.09246 24.4415 9.29214 24.6105C9.4995 24.7794 9.77982 24.8639 10.1331 24.8639ZM15.7273 27.8937L16.6259 25.4745L14.1836 19.4841H15.7504L16.9945 22.7212C17.0636 22.8978 17.1289 23.1129 17.1904 23.3663C17.2518 23.6121 17.2979 23.8156 17.3286 23.9769C17.367 23.8156 17.4169 23.6121 17.4784 23.3663C17.5398 23.1129 17.6051 22.8978 17.6742 22.7212L18.8608 19.4841H20.3584L17.2364 27.8937H15.7273ZM31.0054 25.9353C30.4601 25.9353 29.9839 25.8354 29.5769 25.6357C29.1775 25.4361 28.8665 25.1557 28.6438 24.7948C28.421 24.4338 28.3097 24.0076 28.3097 23.5161H29.7612C29.7612 23.8924 29.8687 24.1881 30.0838 24.4031C30.3065 24.6105 30.6175 24.7141 31.0169 24.7141C31.4162 24.7141 31.7234 24.6066 31.9385 24.3916C32.1535 24.1765 32.261 23.8847 32.261 23.5161V22.8825C32.261 22.5061 32.1535 22.2143 31.9385 22.0069C31.7234 21.7919 31.4162 21.6844 31.0169 21.6844H30.0262V20.5324L31.8578 18.6431H28.6898V17.4105H33.413V18.597L31.0169 21.0393V20.4517C31.8463 20.4517 32.503 20.6706 32.9868 21.1084C33.4706 21.5461 33.7126 22.1375 33.7126 22.8825V23.5161C33.7126 24.0076 33.6012 24.4338 33.3785 24.7948C33.1558 25.1557 32.8409 25.4361 32.4338 25.6357C32.0268 25.8354 31.5506 25.9353 31.0054 25.9353ZM35.6089 25.8201V19.4841H37.0143V20.6937H37.406L37.0143 21.0277C37.0143 20.5132 37.1717 20.11 37.4866 19.8181C37.8015 19.5186 38.2316 19.3689 38.7769 19.3689C39.4297 19.3689 39.9519 19.5839 40.3436 20.014C40.7353 20.4441 40.9311 21.0239 40.9311 21.7535V22.2719H39.422V21.8572C39.422 21.4655 39.3183 21.1621 39.1109 20.9471C38.9113 20.7244 38.6194 20.613 38.2354 20.613C37.8514 20.613 37.5557 20.7282 37.3484 20.9586C37.1487 21.1813 37.0489 21.5077 37.0489 21.9378V25.8201H35.6089ZM44.325 25.9353C43.7106 25.9353 43.2114 25.7164 42.8274 25.2786C42.4434 24.8409 42.2514 24.2533 42.2514 23.5161V21.7996C42.2514 21.0546 42.4434 20.4633 42.8274 20.0255C43.2114 19.5877 43.7106 19.3689 44.325 19.3689C44.8933 19.3689 45.3388 19.5493 45.6613 19.9103C45.9839 20.2636 46.1452 20.7474 46.1452 21.3618L45.742 20.6245H46.076L46.03 19.1845V17.4105H47.47V25.8201H46.0645V24.6796H45.742L46.1452 23.9423C46.1452 24.5644 45.9839 25.0521 45.6613 25.4053C45.3388 25.7586 44.8933 25.9353 44.325 25.9353ZM44.8664 24.6911C45.2351 24.6911 45.5192 24.5797 45.7189 24.357C45.9263 24.1343 46.03 23.8194 46.03 23.4124V21.8917C46.03 21.4847 45.9263 21.1698 45.7189 20.9471C45.5192 20.7244 45.2351 20.613 44.8664 20.613C44.4978 20.613 44.2098 20.7205 44.0024 20.9356C43.7951 21.1506 43.6914 21.4578 43.6914 21.8572V23.4469C43.6914 23.8463 43.7951 24.1535 44.0024 24.3685C44.2098 24.5836 44.4978 24.6911 44.8664 24.6911ZM0.88704 42.8937V34.4841H2.29248V35.6245H2.61504L2.21184 36.3618C2.21184 35.7397 2.37696 35.2521 2.7072 34.8988C3.03744 34.5455 3.47904 34.3689 4.032 34.3689C4.66176 34.3689 5.1648 34.5877 5.54112 35.0255C5.91744 35.4633 6.1056 36.0508 6.1056 36.7881V38.5045C6.1056 38.9961 6.01728 39.4261 5.84064 39.7948C5.67168 40.1557 5.4336 40.4361 5.1264 40.6357C4.8192 40.8354 4.4544 40.9353 4.032 40.9353C3.47904 40.9353 3.03744 40.7586 2.7072 40.4053C2.37696 40.0444 2.21184 39.5567 2.21184 38.9423L2.61504 39.6796H2.29248L2.32704 41.1196V42.8937H0.88704ZM3.50208 39.6911C3.87072 39.6911 4.15488 39.5836 4.35456 39.3685C4.56192 39.1535 4.6656 38.8463 4.6656 38.4469V36.8572C4.6656 36.4578 4.56192 36.1506 4.35456 35.9356C4.15488 35.7205 3.87072 35.613 3.50208 35.613C3.13344 35.613 2.84544 35.7244 2.63808 35.9471C2.43072 36.1698 2.32704 36.4847 2.32704 36.8917V38.4124C2.32704 38.8194 2.43072 39.1343 2.63808 39.357C2.84544 39.5797 3.13344 39.6911 3.50208 39.6911ZM9.66078 40.9353C9.00798 40.9353 8.49342 40.7625 8.1171 40.4169C7.74078 40.0713 7.55262 39.6066 7.55262 39.0229C7.55262 38.4009 7.76382 37.9209 8.18622 37.5829C8.6163 37.2373 9.21918 37.0645 9.99486 37.0645H11.5155V36.5346C11.5155 36.2274 11.4118 35.9893 11.2045 35.8204C11.0048 35.6514 10.7245 35.5669 10.3635 35.5669C10.0179 35.5669 9.74142 35.6399 9.53406 35.7858C9.33438 35.9317 9.22686 36.1122 9.2115 36.3273H7.84062C7.86366 35.9279 7.9827 35.5823 8.19774 35.2905C8.42046 34.9986 8.71998 34.7721 9.0963 34.6108C9.4803 34.4495 9.9219 34.3689 10.4211 34.3689C11.2045 34.3689 11.8227 34.5609 12.2758 34.9449C12.7289 35.3289 12.9555 35.8549 12.9555 36.5231V40.8201H11.5616V39.7487H11.3312L11.5731 39.4031C11.5731 39.8716 11.4003 40.2441 11.0547 40.5205C10.7091 40.797 10.2445 40.9353 9.66078 40.9353ZM10.1331 39.8639C10.5401 39.8639 10.8704 39.7602 11.1238 39.5529C11.3849 39.3455 11.5155 39.0805 11.5155 38.758V37.9861H10.0294C9.70686 37.9861 9.45342 38.0706 9.2691 38.2396C9.08478 38.4009 8.99262 38.6197 8.99262 38.8962C8.99262 39.2034 9.09246 39.4415 9.29214 39.6105C9.4995 39.7794 9.77982 39.8639 10.1331 39.8639ZM14.8864 40.8201V34.4841H16.2918V35.6937H16.6835L16.2918 36.0277C16.2918 35.5132 16.4492 35.11 16.7641 34.8181C17.079 34.5186 17.5091 34.3689 18.0544 34.3689C18.7072 34.3689 19.2294 34.5839 19.6211 35.014C20.0128 35.4441 20.2086 36.0239 20.2086 36.7535V37.2719H18.6995V36.8572C18.6995 36.4655 18.5958 36.1621 18.3884 35.9471C18.1888 35.7244 17.8969 35.613 17.5129 35.613C17.1289 35.613 16.8332 35.7282 16.6259 35.9586C16.4262 36.1813 16.3264 36.5077 16.3264 36.9378V40.8201H14.8864ZM24.8697 40.8201C24.2783 40.8201 23.806 40.6511 23.4527 40.3132C23.1071 39.9676 22.9343 39.5029 22.9343 38.9193V35.7858H21.2179V34.4841H22.9343V32.6985H24.3859V34.4841H26.8166V35.7858H24.3859V38.8847C24.3859 39.069 24.4358 39.2226 24.5356 39.3455C24.6431 39.4607 24.7891 39.5183 24.9734 39.5183H26.7014V40.8201H24.8697ZM29.5423 42.8937L30.4409 40.4745L27.9986 34.4841H29.5654L30.8095 37.7212C30.8786 37.8978 30.9439 38.1129 31.0054 38.3663C31.0668 38.6121 31.1129 38.8156 31.1436 38.9769C31.182 38.8156 31.2319 38.6121 31.2934 38.3663C31.3548 38.1129 31.4201 37.8978 31.4892 37.7212L32.6758 34.4841H34.1734L31.0514 42.8937H29.5423ZM45.5922 40.8201C45.0008 40.8201 44.5285 40.6511 44.1752 40.3132C43.8296 39.9676 43.6568 39.5029 43.6568 38.9193V35.7858H41.9404V34.4841H43.6568V32.6985H45.1084V34.4841H47.5391V35.7858H45.1084V38.8847C45.1084 39.069 45.1583 39.2226 45.2581 39.3455C45.3656 39.4607 45.5116 39.5183 45.6959 39.5183H47.4239V40.8201H45.5922ZM51.8085 40.9237C51.2709 40.9237 50.8024 40.8239 50.4031 40.6242C50.0037 40.4169 49.6965 40.1289 49.4815 39.7602C49.2664 39.3839 49.1589 38.9423 49.1589 38.4354V36.8687C49.1589 36.3618 49.2664 35.9241 49.4815 35.5554C49.6965 35.1791 50.0037 34.8911 50.4031 34.6914C50.8024 34.4841 51.2709 34.3804 51.8085 34.3804C52.3538 34.3804 52.8223 34.4841 53.2139 34.6914C53.6133 34.8911 53.9205 35.1791 54.1355 35.5554C54.3506 35.9241 54.4581 36.358 54.4581 36.8572V38.4354C54.4581 38.9423 54.3506 39.3839 54.1355 39.7602C53.9205 40.1289 53.6133 40.4169 53.2139 40.6242C52.8223 40.8239 52.3538 40.9237 51.8085 40.9237ZM51.8085 39.6681C52.1925 39.6681 52.4882 39.5644 52.6955 39.357C52.9106 39.142 53.0181 38.8348 53.0181 38.4354V36.8687C53.0181 36.4617 52.9106 36.1545 52.6955 35.9471C52.4882 35.7397 52.1925 35.6361 51.8085 35.6361C51.4322 35.6361 51.1365 35.7397 50.9215 35.9471C50.7064 36.1545 50.5989 36.4617 50.5989 36.8687V38.4354C50.5989 38.8348 50.7064 39.142 50.9215 39.357C51.1365 39.5644 51.4322 39.6681 51.8085 39.6681Z" fill="#B2519E"/>
<path d="M3.21408 56.1037C2.73024 56.1037 2.304 56.0269 1.93536 55.8733C1.56672 55.7197 1.27872 55.5085 1.07136 55.2397C0.87168 54.9632 0.77184 54.6368 0.77184 54.2605H2.22336C2.22336 54.4832 2.31168 54.656 2.48832 54.7789C2.67264 54.8941 2.9184 54.9517 3.2256 54.9517H3.72096C4.07424 54.9517 4.3392 54.8864 4.51584 54.7558C4.70016 54.6253 4.79232 54.4448 4.79232 54.2144C4.79232 53.9917 4.70784 53.815 4.53888 53.6845C4.36992 53.5462 4.128 53.4541 3.81312 53.408L2.92608 53.2928C2.2656 53.193 1.7664 52.9856 1.42848 52.6707C1.09824 52.3558 0.93312 51.9296 0.93312 51.392C0.93312 50.793 1.1328 50.3398 1.53216 50.0326C1.9392 49.7178 2.52672 49.5603 3.29472 49.5603H3.73248C4.4544 49.5603 5.0304 49.7178 5.46048 50.0326C5.89056 50.3475 6.1056 50.7699 6.1056 51.2998H4.65408C4.65408 51.1155 4.57344 50.9734 4.41216 50.8736C4.25088 50.7661 4.02048 50.7123 3.72096 50.7123H3.2832C2.976 50.7123 2.74176 50.7738 2.58048 50.8966C2.4192 51.0118 2.33856 51.177 2.33856 51.392C2.33856 51.7837 2.61888 52.0218 3.17952 52.1062L4.07808 52.2445C4.79232 52.3366 5.32224 52.544 5.66784 52.8666C6.02112 53.1814 6.19776 53.6192 6.19776 54.1798C6.19776 54.7866 5.98656 55.2589 5.56416 55.5968C5.14944 55.9347 4.53504 56.1037 3.72096 56.1037H3.21408ZM10.375 56.1152C9.83742 56.1152 9.36894 56.0115 8.96958 55.8042C8.57022 55.5968 8.25918 55.3088 8.03646 54.9402C7.82142 54.5638 7.7139 54.1261 7.7139 53.6269V52.0371C7.7139 51.5379 7.82142 51.104 8.03646 50.7354C8.25918 50.359 8.57022 50.0672 8.96958 49.8598C9.36894 49.6525 9.83742 49.5488 10.375 49.5488C10.9049 49.5488 11.3657 49.6525 11.7574 49.8598C12.1568 50.0672 12.464 50.359 12.679 50.7354C12.9017 51.104 13.0131 51.5379 13.0131 52.0371V53.1776H9.10782V53.6269C9.10782 54.0723 9.21534 54.4102 9.43038 54.6406C9.64542 54.8634 9.96414 54.9747 10.3865 54.9747C10.7091 54.9747 10.9702 54.921 11.1699 54.8134C11.3696 54.6982 11.4963 54.5331 11.5501 54.3181H12.967C12.8595 54.8634 12.5677 55.3011 12.0915 55.6314C11.623 55.9539 11.0509 56.1152 10.375 56.1152ZM11.6192 52.3712V52.0256C11.6192 51.5878 11.5155 51.2538 11.3081 51.0234C11.1008 50.7853 10.7897 50.6662 10.375 50.6662C9.9603 50.6662 9.64542 50.7853 9.43038 51.0234C9.21534 51.2614 9.10782 51.5994 9.10782 52.0371V52.279L11.7229 52.256L11.6192 52.3712ZM14.702 56V49.664H16.1075V50.8736H16.4992L16.1075 51.2077C16.1075 50.6931 16.2572 50.2899 16.5568 49.9981C16.864 49.6986 17.2825 49.5488 17.8124 49.5488C18.4345 49.5488 18.9299 49.7562 19.2985 50.1709C19.6748 50.5856 19.863 51.1424 19.863 51.8413V56H18.423V51.991C18.423 51.607 18.3232 51.3114 18.1235 51.104C17.9238 50.8966 17.6473 50.793 17.294 50.793C16.9331 50.793 16.6489 50.9005 16.4416 51.1155C16.2419 51.3306 16.142 51.6378 16.142 52.0371V56H14.702ZM23.6025 56.1152C22.9881 56.1152 22.4889 55.8963 22.1049 55.4586C21.7209 55.0208 21.5289 54.4333 21.5289 53.696V51.9795C21.5289 51.2346 21.7209 50.6432 22.1049 50.2054C22.4889 49.7677 22.9881 49.5488 23.6025 49.5488C24.1708 49.5488 24.6163 49.7293 24.9388 50.0902C25.2614 50.4435 25.4227 50.9274 25.4227 51.5418L25.0195 50.8045H25.3535L25.3075 49.3645V47.5904H26.7475V56H25.342V54.8595H25.0195L25.4227 54.1222C25.4227 54.7443 25.2614 55.232 24.9388 55.5853C24.6163 55.9386 24.1708 56.1152 23.6025 56.1152ZM24.1439 54.871C24.5126 54.871 24.7967 54.7597 24.9964 54.537C25.2038 54.3142 25.3075 53.9994 25.3075 53.5923V52.0717C25.3075 51.6646 25.2038 51.3498 24.9964 51.127C24.7967 50.9043 24.5126 50.793 24.1439 50.793C23.7753 50.793 23.4873 50.9005 23.2799 51.1155C23.0726 51.3306 22.9689 51.6378 22.9689 52.0371V53.6269C22.9689 54.0262 23.0726 54.3334 23.2799 54.5485C23.4873 54.7635 23.7753 54.871 24.1439 54.871ZM37.2908 56.1152C36.638 56.1152 36.1234 55.9424 35.7471 55.5968C35.3708 55.2512 35.1826 54.7866 35.1826 54.2029C35.1826 53.5808 35.3938 53.1008 35.8162 52.7629C36.2463 52.4173 36.8492 52.2445 37.6249 52.2445H39.1455V51.7146C39.1455 51.4074 39.0418 51.1693 38.8345 51.0003C38.6348 50.8314 38.3545 50.7469 37.9935 50.7469C37.6479 50.7469 37.3714 50.8198 37.1641 50.9658C36.9644 51.1117 36.8569 51.2922 36.8415 51.5072H35.4706C35.4937 51.1078 35.6127 50.7622 35.8277 50.4704C36.0505 50.1786 36.35 49.952 36.7263 49.7907C37.1103 49.6294 37.5519 49.5488 38.0511 49.5488C38.8345 49.5488 39.4527 49.7408 39.9058 50.1248C40.3589 50.5088 40.5855 51.0349 40.5855 51.703V56H39.1916V54.9286H38.9612L39.2031 54.583C39.2031 55.0515 39.0303 55.424 38.6847 55.7005C38.3391 55.977 37.8745 56.1152 37.2908 56.1152ZM37.7631 55.0438C38.1701 55.0438 38.5004 54.9402 38.7538 54.7328C39.0149 54.5254 39.1455 54.2605 39.1455 53.9379V53.1661H37.6594C37.3369 53.1661 37.0834 53.2506 36.8991 53.4195C36.7148 53.5808 36.6226 53.7997 36.6226 54.0762C36.6226 54.3834 36.7225 54.6214 36.9221 54.7904C37.1295 54.9594 37.4098 55.0438 37.7631 55.0438ZM44.325 56.1152C43.7106 56.1152 43.2114 55.8963 42.8274 55.4586C42.4434 55.0208 42.2514 54.4333 42.2514 53.696V51.9795C42.2514 51.2346 42.4434 50.6432 42.8274 50.2054C43.2114 49.7677 43.7106 49.5488 44.325 49.5488C44.8933 49.5488 45.3388 49.7293 45.6613 50.0902C45.9839 50.4435 46.1452 50.9274 46.1452 51.5418L45.742 50.8045H46.076L46.03 49.3645V47.5904H47.47V56H46.0645V54.8595H45.742L46.1452 54.1222C46.1452 54.7443 45.9839 55.232 45.6613 55.5853C45.3388 55.9386 44.8933 56.1152 44.325 56.1152ZM44.8664 54.871C45.2351 54.871 45.5192 54.7597 45.7189 54.537C45.9263 54.3142 46.03 53.9994 46.03 53.5923V52.0717C46.03 51.6646 45.9263 51.3498 45.7189 51.127C45.5192 50.9043 45.2351 50.793 44.8664 50.793C44.4978 50.793 44.2098 50.9005 44.0024 51.1155C43.7951 51.3306 43.6914 51.6378 43.6914 52.0371V53.6269C43.6914 54.0262 43.7951 54.3334 44.0024 54.5485C44.2098 54.7635 44.4978 54.871 44.8664 54.871ZM51.5666 56.1037C51.0827 56.1037 50.6565 56.0269 50.2879 55.8733C49.9192 55.7197 49.6312 55.5085 49.4239 55.2397C49.2242 54.9632 49.1243 54.6368 49.1243 54.2605H50.5759C50.5759 54.4832 50.6642 54.656 50.8408 54.7789C51.0251 54.8941 51.2709 54.9517 51.5781 54.9517H52.0735C52.4267 54.9517 52.6917 54.8864 52.8683 54.7558C53.0527 54.6253 53.1448 54.4448 53.1448 54.2144C53.1448 53.9917 53.0603 53.815 52.8914 53.6845C52.7224 53.5462 52.4805 53.4541 52.1656 53.408L51.2786 53.2928C50.6181 53.193 50.1189 52.9856 49.781 52.6707C49.4507 52.3558 49.2856 51.9296 49.2856 51.392C49.2856 50.793 49.4853 50.3398 49.8847 50.0326C50.2917 49.7178 50.8792 49.5603 51.6472 49.5603H52.085C52.8069 49.5603 53.3829 49.7178 53.813 50.0326C54.2431 50.3475 54.4581 50.7699 54.4581 51.2998H53.0066C53.0066 51.1155 52.9259 50.9734 52.7647 50.8736C52.6034 50.7661 52.373 50.7123 52.0735 50.7123H51.6357C51.3285 50.7123 51.0943 50.7738 50.933 50.8966C50.7717 51.0118 50.6911 51.177 50.6911 51.392C50.6911 51.7837 50.9714 52.0218 51.532 52.1062L52.4306 52.2445C53.1448 52.3366 53.6747 52.544 54.0203 52.8666C54.3736 53.1814 54.5503 53.6192 54.5503 54.1798C54.5503 54.7866 54.3391 55.2589 53.9167 55.5968C53.5019 55.9347 52.8875 56.1037 52.0735 56.1037H51.5666Z" fill="#B2519E"/>
<path d="M117.02 69.82C117.02 44.91 92.9 24.76 63.1 24.76" stroke="#B2519E" stroke-width="2" stroke-miterlimit="10" stroke-linecap="round"/>
<path d="M350.147 259.84V251.43H352.728C353.265 251.43 353.73 251.519 354.121 251.695C354.521 251.872 354.828 252.125 355.043 252.456C355.266 252.778 355.377 253.158 355.377 253.596C355.377 254.157 355.2 254.606 354.847 254.944C354.502 255.282 354.033 255.451 353.442 255.451V255.336C354.079 255.32 354.594 255.508 354.985 255.9C355.377 256.284 355.573 256.799 355.573 257.444C355.573 257.928 355.458 258.35 355.227 258.711C355.005 259.072 354.69 259.352 354.283 259.552C353.883 259.744 353.407 259.84 352.854 259.84H350.147ZM351.552 258.642H352.762C353.184 258.642 353.515 258.53 353.753 258.308C353.999 258.077 354.121 257.766 354.121 257.375C354.121 256.983 353.999 256.668 353.753 256.43C353.515 256.184 353.184 256.061 352.762 256.061H351.552V258.642ZM351.552 254.898H352.704C353.088 254.898 353.388 254.798 353.603 254.598C353.826 254.391 353.937 254.111 353.937 253.757C353.937 253.404 353.826 253.128 353.603 252.928C353.388 252.728 353.088 252.628 352.704 252.628H351.552V254.898ZM359.624 259.955C358.817 259.955 358.184 259.732 357.723 259.287C357.262 258.834 357.032 258.219 357.032 257.444V253.504H358.472V257.432C358.472 257.839 358.571 258.154 358.771 258.377C358.971 258.592 359.255 258.699 359.624 258.699C359.984 258.699 360.265 258.592 360.464 258.377C360.672 258.154 360.776 257.839 360.776 257.432V253.504H362.216V257.444C362.216 258.219 361.981 258.834 361.513 259.287C361.044 259.732 360.415 259.955 359.624 259.955ZM366.289 259.944C365.805 259.944 365.379 259.867 365.01 259.713C364.642 259.56 364.354 259.348 364.146 259.08C363.947 258.803 363.847 258.477 363.847 258.1H365.298C365.298 258.323 365.387 258.496 365.563 258.619C365.748 258.734 365.993 258.792 366.301 258.792H366.796C367.149 258.792 367.414 258.726 367.591 258.596C367.775 258.465 367.867 258.285 367.867 258.054C367.867 257.832 367.783 257.655 367.614 257.524C367.445 257.386 367.203 257.294 366.888 257.248L366.001 257.133C365.341 257.033 364.841 256.825 364.503 256.511C364.173 256.196 364.008 255.769 364.008 255.232C364.008 254.633 364.208 254.18 364.607 253.872C365.014 253.558 365.602 253.4 366.37 253.4H366.807C367.529 253.4 368.105 253.558 368.535 253.872C368.966 254.187 369.181 254.61 369.181 255.14H367.729C367.729 254.955 367.648 254.813 367.487 254.713C367.326 254.606 367.095 254.552 366.796 254.552H366.358C366.051 254.552 365.817 254.614 365.655 254.736C365.494 254.852 365.414 255.017 365.414 255.232C365.414 255.624 365.694 255.862 366.255 255.946L367.153 256.084C367.867 256.176 368.397 256.384 368.743 256.706C369.096 257.021 369.273 257.459 369.273 258.02C369.273 258.626 369.062 259.099 368.639 259.437C368.224 259.775 367.61 259.944 366.796 259.944H366.289ZM370.858 259.84V258.538H373.024V254.806H371.088V253.504H374.464V258.538H376.411V259.84H370.858ZM373.646 252.444C373.354 252.444 373.124 252.371 372.955 252.225C372.786 252.072 372.701 251.868 372.701 251.615C372.701 251.361 372.786 251.161 372.955 251.016C373.124 250.862 373.354 250.785 373.646 250.785C373.938 250.785 374.168 250.862 374.337 251.016C374.506 251.161 374.591 251.361 374.591 251.615C374.591 251.868 374.506 252.072 374.337 252.225C374.168 252.371 373.938 252.444 373.646 252.444ZM377.777 259.84V253.504H379.182V254.713H379.574L379.182 255.048C379.182 254.533 379.332 254.13 379.632 253.838C379.939 253.538 380.358 253.389 380.887 253.389C381.51 253.389 382.005 253.596 382.374 254.011C382.75 254.425 382.938 254.982 382.938 255.681V259.84H381.498V255.831C381.498 255.447 381.398 255.151 381.198 254.944C380.999 254.736 380.722 254.633 380.369 254.633C380.008 254.633 379.724 254.74 379.517 254.955C379.317 255.17 379.217 255.478 379.217 255.877V259.84H377.777ZM387.265 259.955C386.727 259.955 386.259 259.851 385.86 259.644C385.46 259.437 385.149 259.149 384.926 258.78C384.711 258.404 384.604 257.966 384.604 257.467V255.877C384.604 255.378 384.711 254.944 384.926 254.575C385.149 254.199 385.46 253.907 385.86 253.7C386.259 253.492 386.727 253.389 387.265 253.389C387.795 253.389 388.256 253.492 388.647 253.7C389.047 253.907 389.354 254.199 389.569 254.575C389.792 254.944 389.903 255.378 389.903 255.877V257.017H385.998V257.467C385.998 257.912 386.105 258.25 386.32 258.48C386.535 258.703 386.854 258.815 387.277 258.815C387.599 258.815 387.86 258.761 388.06 258.653C388.26 258.538 388.386 258.373 388.44 258.158H389.857C389.75 258.703 389.458 259.141 388.982 259.471C388.513 259.794 387.941 259.955 387.265 259.955ZM388.509 256.211V255.865C388.509 255.428 388.406 255.094 388.198 254.863C387.991 254.625 387.68 254.506 387.265 254.506C386.85 254.506 386.535 254.625 386.32 254.863C386.105 255.101 385.998 255.439 385.998 255.877V256.119L388.613 256.096L388.509 256.211ZM393.919 259.944C393.435 259.944 393.009 259.867 392.64 259.713C392.272 259.56 391.984 259.348 391.776 259.08C391.577 258.803 391.477 258.477 391.477 258.1H392.928C392.928 258.323 393.017 258.496 393.193 258.619C393.378 258.734 393.623 258.792 393.931 258.792H394.426C394.779 258.792 395.044 258.726 395.221 258.596C395.405 258.465 395.497 258.285 395.497 258.054C395.497 257.832 395.413 257.655 395.244 257.524C395.075 257.386 394.833 257.294 394.518 257.248L393.631 257.133C392.971 257.033 392.471 256.825 392.133 256.511C391.803 256.196 391.638 255.769 391.638 255.232C391.638 254.633 391.838 254.18 392.237 253.872C392.644 253.558 393.232 253.4 394 253.4H394.437C395.159 253.4 395.735 253.558 396.165 253.872C396.596 254.187 396.811 254.61 396.811 255.14H395.359C395.359 254.955 395.278 254.813 395.117 254.713C394.956 254.606 394.725 254.552 394.426 254.552H393.988C393.681 254.552 393.447 254.614 393.285 254.736C393.124 254.852 393.044 255.017 393.044 255.232C393.044 255.624 393.324 255.862 393.885 255.946L394.783 256.084C395.497 256.176 396.027 256.384 396.373 256.706C396.726 257.021 396.903 257.459 396.903 258.02C396.903 258.626 396.692 259.099 396.269 259.437C395.854 259.775 395.24 259.944 394.426 259.944H393.919ZM400.827 259.944C400.343 259.944 399.917 259.867 399.548 259.713C399.179 259.56 398.891 259.348 398.684 259.08C398.484 258.803 398.384 258.477 398.384 258.1H399.836C399.836 258.323 399.924 258.496 400.101 258.619C400.285 258.734 400.531 258.792 400.838 258.792H401.333C401.687 258.792 401.952 258.726 402.128 258.596C402.313 258.465 402.405 258.285 402.405 258.054C402.405 257.832 402.32 257.655 402.151 257.524C401.982 257.386 401.741 257.294 401.426 257.248L400.539 257.133C399.878 257.033 399.379 256.825 399.041 256.511C398.711 256.196 398.546 255.769 398.546 255.232C398.546 254.633 398.745 254.18 399.145 253.872C399.552 253.558 400.139 253.4 400.907 253.4H401.345C402.067 253.4 402.643 253.558 403.073 253.872C403.503 254.187 403.718 254.61 403.718 255.14H402.267C402.267 254.955 402.186 254.813 402.025 254.713C401.863 254.606 401.633 254.552 401.333 254.552H400.896C400.589 254.552 400.354 254.614 400.193 254.736C400.032 254.852 399.951 255.017 399.951 255.232C399.951 255.624 400.231 255.862 400.792 255.946L401.691 256.084C402.405 256.176 402.935 256.384 403.28 256.706C403.634 257.021 403.81 257.459 403.81 258.02C403.81 258.626 403.599 259.099 403.177 259.437C402.762 259.775 402.148 259.944 401.333 259.944H400.827ZM406.951 255.105C407.173 254.721 407.342 254.418 407.458 254.195C407.58 253.965 407.665 253.78 407.711 253.642C407.757 253.496 407.78 253.362 407.78 253.239C407.78 253.062 407.723 252.924 407.607 252.824C407.5 252.724 407.346 252.674 407.147 252.674H406.812V251.43H407.227C407.819 251.43 408.279 251.58 408.61 251.88C408.94 252.179 409.105 252.594 409.105 253.124C409.105 253.293 409.078 253.465 409.024 253.642C408.978 253.811 408.898 254.015 408.782 254.253C408.675 254.483 408.521 254.767 408.322 255.105H406.951ZM414.642 259.944C414.158 259.944 413.732 259.867 413.363 259.713C412.994 259.56 412.706 259.348 412.499 259.08C412.299 258.803 412.199 258.477 412.199 258.1H413.651C413.651 258.323 413.739 258.496 413.916 258.619C414.1 258.734 414.346 258.792 414.653 258.792H415.148C415.502 258.792 415.767 258.726 415.943 258.596C416.128 258.465 416.22 258.285 416.22 258.054C416.22 257.832 416.135 257.655 415.966 257.524C415.797 257.386 415.556 257.294 415.241 257.248L414.354 257.133C413.693 257.033 413.194 256.825 412.856 256.511C412.526 256.196 412.361 255.769 412.361 255.232C412.361 254.633 412.56 254.18 412.96 253.872C413.367 253.558 413.954 253.4 414.722 253.4H415.16C415.882 253.4 416.458 253.558 416.888 253.872C417.318 254.187 417.533 254.61 417.533 255.14H416.082C416.082 254.955 416.001 254.813 415.84 254.713C415.678 254.606 415.448 254.552 415.148 254.552H414.711C414.404 254.552 414.169 254.614 414.008 254.736C413.847 254.852 413.766 255.017 413.766 255.232C413.766 255.624 414.046 255.862 414.607 255.946L415.506 256.084C416.22 256.176 416.75 256.384 417.095 256.706C417.449 257.021 417.625 257.459 417.625 258.02C417.625 258.626 417.414 259.099 416.992 259.437C416.577 259.775 415.963 259.944 415.148 259.944H414.642ZM427.996 259.955C427.343 259.955 426.828 259.782 426.452 259.437C426.076 259.091 425.888 258.626 425.888 258.043C425.888 257.421 426.099 256.941 426.521 256.603C426.951 256.257 427.554 256.084 428.33 256.084H429.851V255.554C429.851 255.247 429.747 255.009 429.539 254.84C429.34 254.671 429.059 254.587 428.699 254.587C428.353 254.587 428.076 254.66 427.869 254.806C427.669 254.952 427.562 255.132 427.547 255.347H426.176C426.199 254.948 426.318 254.602 426.533 254.31C426.755 254.018 427.055 253.792 427.431 253.631C427.815 253.469 428.257 253.389 428.756 253.389C429.539 253.389 430.158 253.581 430.611 253.965C431.064 254.349 431.291 254.875 431.291 255.543V259.84H429.897V258.768H429.666L429.908 258.423C429.908 258.891 429.735 259.264 429.39 259.54C429.044 259.817 428.579 259.955 427.996 259.955ZM428.468 258.884C428.875 258.884 429.205 258.78 429.459 258.573C429.72 258.365 429.851 258.1 429.851 257.778V257.006H428.364C428.042 257.006 427.788 257.09 427.604 257.259C427.42 257.421 427.328 257.64 427.328 257.916C427.328 258.223 427.427 258.461 427.627 258.63C427.835 258.799 428.115 258.884 428.468 258.884ZM435.03 259.955C434.416 259.955 433.916 259.736 433.532 259.298C433.148 258.861 432.956 258.273 432.956 257.536V255.819C432.956 255.074 433.148 254.483 433.532 254.045C433.916 253.608 434.416 253.389 435.03 253.389C435.598 253.389 436.044 253.569 436.366 253.93C436.689 254.283 436.85 254.767 436.85 255.382L436.447 254.644H436.781L436.735 253.204V251.43H438.175V259.84H436.77V258.699H436.447L436.85 257.962C436.85 258.584 436.689 259.072 436.366 259.425C436.044 259.778 435.598 259.955 435.03 259.955ZM435.571 258.711C435.94 258.711 436.224 258.6 436.424 258.377C436.631 258.154 436.735 257.839 436.735 257.432V255.912C436.735 255.504 436.631 255.19 436.424 254.967C436.224 254.744 435.94 254.633 435.571 254.633C435.203 254.633 434.915 254.74 434.707 254.955C434.5 255.17 434.396 255.478 434.396 255.877V257.467C434.396 257.866 434.5 258.173 434.707 258.388C434.915 258.603 435.203 258.711 435.571 258.711Z" fill="#B2519E"/>
<path d="M352.474 273.764C351.99 273.764 351.564 273.687 351.195 273.533C350.827 273.38 350.539 273.168 350.331 272.9C350.132 272.623 350.032 272.297 350.032 271.92H351.483C351.483 272.143 351.572 272.316 351.748 272.439C351.933 272.554 352.178 272.612 352.486 272.612H352.981C353.334 272.612 353.599 272.546 353.776 272.416C353.96 272.285 354.052 272.105 354.052 271.874C354.052 271.652 353.968 271.475 353.799 271.344C353.63 271.206 353.388 271.114 353.073 271.068L352.186 270.953C351.526 270.853 351.026 270.646 350.688 270.331C350.358 270.016 350.193 269.59 350.193 269.052C350.193 268.453 350.393 268 350.792 267.693C351.199 267.378 351.787 267.22 352.555 267.22H352.992C353.714 267.22 354.29 267.378 354.72 267.693C355.151 268.007 355.366 268.43 355.366 268.96H353.914C353.914 268.775 353.833 268.633 353.672 268.534C353.511 268.426 353.28 268.372 352.981 268.372H352.543C352.236 268.372 352.002 268.434 351.84 268.557C351.679 268.672 351.599 268.837 351.599 269.052C351.599 269.444 351.879 269.682 352.44 269.766L353.338 269.904C354.052 269.997 354.582 270.204 354.928 270.526C355.281 270.841 355.458 271.279 355.458 271.84C355.458 272.446 355.247 272.919 354.824 273.257C354.409 273.595 353.795 273.764 352.981 273.764H352.474ZM357.055 273.66V265.25H358.495V267.324L358.46 268.534H358.852L358.46 268.868C358.46 268.353 358.61 267.95 358.909 267.658C359.216 267.358 359.635 267.209 360.165 267.209C360.787 267.209 361.282 267.416 361.651 267.831C362.027 268.246 362.216 268.802 362.216 269.501V273.66H360.776V269.651C360.776 269.267 360.676 268.971 360.476 268.764C360.276 268.557 360 268.453 359.647 268.453C359.286 268.453 359.001 268.56 358.794 268.775C358.594 268.99 358.495 269.298 358.495 269.697V273.66H357.055ZM366.531 273.764C365.993 273.764 365.525 273.664 365.126 273.464C364.726 273.257 364.419 272.969 364.204 272.6C363.989 272.224 363.881 271.782 363.881 271.275V269.709C363.881 269.202 363.989 268.764 364.204 268.395C364.419 268.019 364.726 267.731 365.126 267.531C365.525 267.324 365.993 267.22 366.531 267.22C367.076 267.22 367.545 267.324 367.936 267.531C368.336 267.731 368.643 268.019 368.858 268.395C369.073 268.764 369.181 269.198 369.181 269.697V271.275C369.181 271.782 369.073 272.224 368.858 272.6C368.643 272.969 368.336 273.257 367.936 273.464C367.545 273.664 367.076 273.764 366.531 273.764ZM366.531 272.508C366.915 272.508 367.211 272.404 367.418 272.197C367.633 271.982 367.741 271.675 367.741 271.275V269.709C367.741 269.302 367.633 268.994 367.418 268.787C367.211 268.58 366.915 268.476 366.531 268.476C366.155 268.476 365.859 268.58 365.644 268.787C365.429 268.994 365.321 269.302 365.321 269.709V271.275C365.321 271.675 365.429 271.982 365.644 272.197C365.859 272.404 366.155 272.508 366.531 272.508ZM371.181 273.66L370.213 267.324H371.365L371.895 271.206C371.926 271.429 371.949 271.675 371.964 271.943C371.987 272.212 372.006 272.435 372.022 272.612H372.079C372.102 272.435 372.125 272.216 372.148 271.955C372.179 271.686 372.21 271.437 372.24 271.206L372.851 267.324H374.049L374.637 271.206C374.667 271.429 374.698 271.678 374.729 271.955C374.759 272.224 374.783 272.446 374.798 272.623H374.855C374.871 272.439 374.89 272.212 374.913 271.943C374.944 271.675 374.971 271.429 374.994 271.206L375.547 267.324H376.664L375.673 273.66H374.187L373.634 269.755C373.604 269.54 373.569 269.302 373.531 269.04C373.5 268.772 373.477 268.553 373.462 268.384H373.415C373.392 268.553 373.366 268.772 373.335 269.04C373.312 269.302 373.281 269.54 373.243 269.755L372.667 273.66H371.181ZM387.254 273.775C386.447 273.775 385.814 273.552 385.353 273.107C384.892 272.654 384.662 272.039 384.662 271.264V267.324H386.102V271.252C386.102 271.659 386.201 271.974 386.401 272.197C386.601 272.412 386.885 272.519 387.254 272.519C387.614 272.519 387.895 272.412 388.094 272.197C388.302 271.974 388.406 271.659 388.406 271.252V267.324H389.846V271.264C389.846 272.039 389.611 272.654 389.143 273.107C388.674 273.552 388.045 273.775 387.254 273.775ZM391.592 275.734V267.324H392.997V268.464H393.32L392.917 269.202C392.917 268.58 393.082 268.092 393.412 267.739C393.742 267.385 394.184 267.209 394.737 267.209C395.367 267.209 395.87 267.428 396.246 267.865C396.622 268.303 396.811 268.891 396.811 269.628V271.344C396.811 271.836 396.722 272.266 396.546 272.635C396.377 272.996 396.139 273.276 395.831 273.476C395.524 273.675 395.159 273.775 394.737 273.775C394.184 273.775 393.742 273.598 393.412 273.245C393.082 272.884 392.917 272.397 392.917 271.782L393.32 272.519H392.997L393.032 273.959V275.734H391.592ZM394.207 272.531C394.576 272.531 394.86 272.423 395.06 272.208C395.267 271.993 395.371 271.686 395.371 271.287V269.697C395.371 269.298 395.267 268.99 395.06 268.775C394.86 268.56 394.576 268.453 394.207 268.453C393.838 268.453 393.55 268.564 393.343 268.787C393.136 269.01 393.032 269.325 393.032 269.732V271.252C393.032 271.659 393.136 271.974 393.343 272.197C393.55 272.42 393.838 272.531 394.207 272.531ZM407.976 273.764C407.438 273.764 406.97 273.664 406.571 273.464C406.171 273.257 405.864 272.969 405.649 272.6C405.434 272.224 405.326 271.782 405.326 271.275V269.709C405.326 269.202 405.434 268.764 405.649 268.395C405.864 268.019 406.171 267.731 406.571 267.531C406.97 267.324 407.438 267.22 407.976 267.22C408.521 267.22 408.99 267.324 409.381 267.531C409.781 267.731 410.088 268.019 410.303 268.395C410.518 268.764 410.626 269.198 410.626 269.697V271.275C410.626 271.782 410.518 272.224 410.303 272.6C410.088 272.969 409.781 273.257 409.381 273.464C408.99 273.664 408.521 273.764 407.976 273.764ZM407.976 272.508C408.36 272.508 408.656 272.404 408.863 272.197C409.078 271.982 409.186 271.675 409.186 271.275V269.709C409.186 269.302 409.078 268.994 408.863 268.787C408.656 268.58 408.36 268.476 407.976 268.476C407.6 268.476 407.304 268.58 407.089 268.787C406.874 268.994 406.766 269.302 406.766 269.709V271.275C406.766 271.675 406.874 271.982 407.089 272.197C407.304 272.404 407.6 272.508 407.976 272.508ZM412.315 273.66V267.324H413.72V268.534H414.112L413.72 268.868C413.72 268.353 413.87 267.95 414.169 267.658C414.476 267.358 414.895 267.209 415.425 267.209C416.047 267.209 416.542 267.416 416.911 267.831C417.287 268.246 417.476 268.802 417.476 269.501V273.66H416.036V269.651C416.036 269.267 415.936 268.971 415.736 268.764C415.536 268.557 415.26 268.453 414.907 268.453C414.546 268.453 414.261 268.56 414.054 268.775C413.854 268.99 413.755 269.298 413.755 269.697V273.66H412.315Z" fill="#B2519E"/>
<path d="M351.172 289.554L352.071 287.134L349.629 281.144H351.195L352.44 284.381C352.509 284.558 352.574 284.773 352.635 285.026C352.697 285.272 352.743 285.476 352.774 285.637C352.812 285.476 352.862 285.272 352.923 285.026C352.985 284.773 353.05 284.558 353.119 284.381L354.306 281.144H355.803L352.681 289.554H351.172ZM359.624 287.584C359.086 287.584 358.617 287.484 358.218 287.284C357.819 287.077 357.512 286.789 357.296 286.42C357.081 286.044 356.974 285.602 356.974 285.095V283.529C356.974 283.022 357.081 282.584 357.296 282.215C357.512 281.839 357.819 281.551 358.218 281.351C358.617 281.144 359.086 281.04 359.624 281.04C360.169 281.04 360.637 281.144 361.029 281.351C361.428 281.551 361.736 281.839 361.951 282.215C362.166 282.584 362.273 283.018 362.273 283.517V285.095C362.273 285.602 362.166 286.044 361.951 286.42C361.736 286.789 361.428 287.077 361.029 287.284C360.637 287.484 360.169 287.584 359.624 287.584ZM359.624 286.328C360.008 286.328 360.303 286.224 360.511 286.017C360.726 285.802 360.833 285.495 360.833 285.095V283.529C360.833 283.122 360.726 282.814 360.511 282.607C360.303 282.4 360.008 282.296 359.624 282.296C359.247 282.296 358.952 282.4 358.736 282.607C358.521 282.814 358.414 283.122 358.414 283.529V285.095C358.414 285.495 358.521 285.802 358.736 286.017C358.952 286.224 359.247 286.328 359.624 286.328ZM366.531 287.595C365.725 287.595 365.091 287.372 364.63 286.927C364.169 286.474 363.939 285.86 363.939 285.084V281.144H365.379V285.072C365.379 285.479 365.479 285.794 365.679 286.017C365.878 286.232 366.162 286.34 366.531 286.34C366.892 286.34 367.172 286.232 367.372 286.017C367.579 285.794 367.683 285.479 367.683 285.072V281.144H369.123V285.084C369.123 285.86 368.889 286.474 368.42 286.927C367.952 287.372 367.322 287.595 366.531 287.595ZM371.054 287.48V281.144H372.459V282.354H372.851L372.459 282.688C372.459 282.173 372.617 281.77 372.932 281.478C373.247 281.179 373.677 281.029 374.222 281.029C374.875 281.029 375.397 281.244 375.789 281.674C376.18 282.104 376.376 282.684 376.376 283.413V283.932H374.867V283.517C374.867 283.125 374.763 282.822 374.556 282.607C374.356 282.384 374.064 282.273 373.68 282.273C373.296 282.273 373.001 282.388 372.793 282.619C372.594 282.841 372.494 283.168 372.494 283.598V287.48H371.054ZM387.288 287.595C386.75 287.595 386.278 287.495 385.871 287.296C385.472 287.088 385.161 286.8 384.938 286.432C384.715 286.055 384.604 285.614 384.604 285.107V283.517C384.604 283.003 384.715 282.561 384.938 282.192C385.161 281.824 385.472 281.539 385.871 281.34C386.278 281.132 386.75 281.029 387.288 281.029C388.087 281.029 388.724 281.236 389.2 281.651C389.677 282.058 389.926 282.615 389.949 283.321H388.544C388.521 282.991 388.398 282.738 388.175 282.561C387.952 282.377 387.657 282.284 387.288 282.284C386.904 282.284 386.601 282.392 386.378 282.607C386.155 282.814 386.044 283.114 386.044 283.506V285.107C386.044 285.499 386.155 285.802 386.378 286.017C386.601 286.232 386.904 286.34 387.288 286.34C387.657 286.34 387.952 286.251 388.175 286.075C388.398 285.89 388.521 285.633 388.544 285.303H389.949C389.926 286.009 389.677 286.57 389.2 286.985C388.724 287.392 388.087 287.595 387.288 287.595ZM394.161 287.584C393.623 287.584 393.155 287.484 392.756 287.284C392.356 287.077 392.049 286.789 391.834 286.42C391.619 286.044 391.511 285.602 391.511 285.095V283.529C391.511 283.022 391.619 282.584 391.834 282.215C392.049 281.839 392.356 281.551 392.756 281.351C393.155 281.144 393.623 281.04 394.161 281.04C394.706 281.04 395.175 281.144 395.566 281.351C395.966 281.551 396.273 281.839 396.488 282.215C396.703 282.584 396.811 283.018 396.811 283.517V285.095C396.811 285.602 396.703 286.044 396.488 286.42C396.273 286.789 395.966 287.077 395.566 287.284C395.175 287.484 394.706 287.584 394.161 287.584ZM394.161 286.328C394.545 286.328 394.841 286.224 395.048 286.017C395.263 285.802 395.371 285.495 395.371 285.095V283.529C395.371 283.122 395.263 282.814 395.048 282.607C394.841 282.4 394.545 282.296 394.161 282.296C393.785 282.296 393.489 282.4 393.274 282.607C393.059 282.814 392.951 283.122 392.951 283.529V285.095C392.951 285.495 393.059 285.802 393.274 286.017C393.489 286.224 393.785 286.328 394.161 286.328ZM398.177 287.48V281.144H399.352V281.996H399.605L399.398 282.204C399.398 281.858 399.498 281.578 399.698 281.363C399.897 281.14 400.155 281.029 400.469 281.029C400.792 281.029 401.061 281.163 401.276 281.432C401.491 281.693 401.598 282.035 401.598 282.457L401.322 281.996H401.714L401.564 282.204C401.564 281.858 401.668 281.578 401.875 281.363C402.082 281.14 402.347 281.029 402.67 281.029C403.054 281.029 403.365 281.179 403.603 281.478C403.841 281.778 403.96 282.169 403.96 282.653V287.48H402.716V282.757C402.716 282.542 402.666 282.377 402.566 282.261C402.474 282.146 402.34 282.089 402.163 282.089C401.986 282.089 401.848 282.146 401.748 282.261C401.656 282.377 401.61 282.542 401.61 282.757V287.48H400.527V282.757C400.527 282.542 400.477 282.377 400.377 282.261C400.285 282.146 400.151 282.089 399.974 282.089C399.797 282.089 399.663 282.146 399.571 282.261C399.479 282.377 399.433 282.542 399.433 282.757V287.48H398.177ZM405.407 289.554V281.144H406.812V282.284H407.135L406.732 283.022C406.732 282.4 406.897 281.912 407.227 281.559C407.557 281.205 407.999 281.029 408.552 281.029C409.182 281.029 409.685 281.248 410.061 281.685C410.437 282.123 410.626 282.711 410.626 283.448V285.164C410.626 285.656 410.537 286.086 410.361 286.455C410.192 286.816 409.954 287.096 409.646 287.296C409.339 287.495 408.974 287.595 408.552 287.595C407.999 287.595 407.557 287.419 407.227 287.065C406.897 286.704 406.732 286.217 406.732 285.602L407.135 286.34H406.812L406.847 287.78V289.554H405.407ZM408.022 286.351C408.391 286.351 408.675 286.244 408.875 286.028C409.082 285.813 409.186 285.506 409.186 285.107V283.517C409.186 283.118 409.082 282.811 408.875 282.595C408.675 282.38 408.391 282.273 408.022 282.273C407.653 282.273 407.365 282.384 407.158 282.607C406.951 282.83 406.847 283.145 406.847 283.552V285.072C406.847 285.479 406.951 285.794 407.158 286.017C407.365 286.24 407.653 286.351 408.022 286.351ZM414.884 287.595C414.077 287.595 413.444 287.372 412.983 286.927C412.522 286.474 412.292 285.86 412.292 285.084V281.144H413.732V285.072C413.732 285.479 413.831 285.794 414.031 286.017C414.231 286.232 414.515 286.34 414.884 286.34C415.244 286.34 415.525 286.232 415.724 286.017C415.932 285.794 416.036 285.479 416.036 285.072V281.144H417.476V285.084C417.476 285.86 417.241 286.474 416.773 286.927C416.304 287.372 415.675 287.595 414.884 287.595ZM422.482 287.48C421.891 287.48 421.419 287.311 421.065 286.973C420.72 286.628 420.547 286.163 420.547 285.579V282.446H418.83V281.144H420.547V279.358H421.998V281.144H424.429V282.446H421.998V285.545C421.998 285.729 422.048 285.883 422.148 286.005C422.256 286.121 422.402 286.178 422.586 286.178H424.314V287.48H422.482ZM428.71 287.595C428.172 287.595 427.704 287.492 427.305 287.284C426.905 287.077 426.594 286.789 426.371 286.42C426.156 286.044 426.049 285.606 426.049 285.107V283.517C426.049 283.018 426.156 282.584 426.371 282.215C426.594 281.839 426.905 281.547 427.305 281.34C427.704 281.132 428.172 281.029 428.71 281.029C429.24 281.029 429.701 281.132 430.092 281.34C430.492 281.547 430.799 281.839 431.014 282.215C431.237 282.584 431.348 283.018 431.348 283.517V284.658H427.443V285.107C427.443 285.552 427.55 285.89 427.765 286.121C427.98 286.343 428.299 286.455 428.722 286.455C429.044 286.455 429.305 286.401 429.505 286.293C429.705 286.178 429.831 286.013 429.885 285.798H431.302C431.195 286.343 430.903 286.781 430.427 287.111C429.958 287.434 429.386 287.595 428.71 287.595ZM429.954 283.851V283.506C429.954 283.068 429.851 282.734 429.643 282.503C429.436 282.265 429.125 282.146 428.71 282.146C428.295 282.146 427.98 282.265 427.765 282.503C427.55 282.741 427.443 283.079 427.443 283.517V283.759L430.058 283.736L429.954 283.851ZM433.221 287.48V281.144H434.627V282.354H435.018L434.627 282.688C434.627 282.173 434.784 281.77 435.099 281.478C435.414 281.179 435.844 281.029 436.389 281.029C437.042 281.029 437.564 281.244 437.956 281.674C438.348 282.104 438.544 282.684 438.544 283.413V283.932H437.034V283.517C437.034 283.125 436.931 282.822 436.723 282.607C436.524 282.384 436.232 282.273 435.848 282.273C435.464 282.273 435.168 282.388 434.961 282.619C434.761 282.841 434.661 283.168 434.661 283.598V287.48H433.221Z" fill="#B2519E"/>
<path d="M289.61 217.24C289.61 242.15 313.73 262.3 343.53 262.3" stroke="#B2519E" stroke-width="2" stroke-miterlimit="10" stroke-linecap="round"/>
<path d="M332.45 101.76H257.81C253.734 101.76 250.43 105.064 250.43 109.14V149.75C250.43 153.826 253.734 157.13 257.81 157.13H332.45C336.526 157.13 339.83 153.826 339.83 149.75V109.14C339.83 105.064 336.526 101.76 332.45 101.76Z" stroke="#B2519E" stroke-width="2" stroke-miterlimit="10"/>
<path d="M339.83 109.14H250.43" stroke="#B2519E" stroke-width="2" stroke-miterlimit="10"/>
<path d="M259.62 105.63C259.62 104.779 258.931 104.09 258.08 104.09C257.229 104.09 256.54 104.779 256.54 105.63C256.54 106.48 257.229 107.17 258.08 107.17C258.931 107.17 259.62 106.48 259.62 105.63Z" fill="#B2519E" stroke="#B2519E" stroke-miterlimit="10"/>
<path d="M264.43 105.63C264.43 104.779 263.741 104.09 262.89 104.09C262.039 104.09 261.35 104.779 261.35 105.63C261.35 106.48 262.039 107.17 262.89 107.17C263.741 107.17 264.43 106.48 264.43 105.63Z" stroke="#B2519E" stroke-miterlimit="10"/>
<path d="M269.23 105.63C269.23 104.779 268.541 104.09 267.69 104.09C266.839 104.09 266.15 104.779 266.15 105.63C266.15 106.48 266.839 107.17 267.69 107.17C268.541 107.17 269.23 106.48 269.23 105.63Z" stroke="#B2519E" stroke-miterlimit="10"/>
<path d="M258.875 120.76L258.28 115.716H258.799L259.206 119.447C259.216 119.544 259.225 119.65 259.234 119.765C259.248 119.876 259.259 119.986 259.269 120.097C259.278 120.203 259.282 120.292 259.282 120.366C259.292 120.292 259.301 120.203 259.31 120.097C259.324 119.986 259.338 119.876 259.351 119.765C259.365 119.65 259.379 119.544 259.393 119.447L259.877 115.716H260.464L260.913 119.447C260.927 119.544 260.941 119.65 260.955 119.765C260.968 119.876 260.982 119.986 260.996 120.097C261.01 120.203 261.019 120.292 261.024 120.366C261.033 120.292 261.042 120.203 261.051 120.097C261.061 119.986 261.072 119.876 261.086 119.765C261.1 119.65 261.111 119.544 261.12 119.447L261.521 115.716H262.026L261.424 120.76H260.72L260.27 116.994C260.257 116.888 260.243 116.78 260.229 116.669C260.22 116.559 260.208 116.455 260.194 116.358C260.185 116.257 260.176 116.174 260.167 116.11C260.162 116.174 260.153 116.255 260.139 116.351C260.125 116.448 260.112 116.554 260.098 116.669C260.089 116.78 260.077 116.888 260.063 116.994L259.573 120.76H258.875ZM264.296 120.829C264.001 120.829 263.746 120.772 263.529 120.656C263.313 120.537 263.145 120.368 263.025 120.152C262.905 119.935 262.845 119.684 262.845 119.399V118.321C262.845 118.031 262.905 117.779 263.025 117.568C263.145 117.351 263.313 117.185 263.529 117.07C263.746 116.95 264.001 116.89 264.296 116.89C264.591 116.89 264.847 116.95 265.063 117.07C265.28 117.185 265.448 117.351 265.568 117.568C265.688 117.779 265.747 118.031 265.747 118.321V118.991H263.384V119.399C263.384 119.707 263.463 119.947 263.619 120.117C263.78 120.283 264.006 120.366 264.296 120.366C264.54 120.366 264.739 120.318 264.891 120.221C265.047 120.124 265.146 119.984 265.188 119.8H265.734C265.683 120.117 265.529 120.368 265.271 120.553C265.013 120.737 264.688 120.829 264.296 120.829ZM265.208 118.625V118.321C265.208 118.012 265.13 117.775 264.973 117.609C264.817 117.439 264.591 117.353 264.296 117.353C264.006 117.353 263.78 117.439 263.619 117.609C263.463 117.775 263.384 118.012 263.384 118.321V118.563H265.264L265.208 118.625ZM268.626 120.829C268.308 120.829 268.05 120.744 267.852 120.573C267.659 120.398 267.562 120.161 267.562 119.862L267.728 120.09H267.583V120.76H267.037V115.716H267.583V116.801L267.576 117.63H267.707L267.562 117.858C267.562 117.563 267.661 117.328 267.859 117.153C268.057 116.978 268.313 116.89 268.626 116.89C269.009 116.89 269.315 117.017 269.545 117.27C269.776 117.524 269.891 117.867 269.891 118.3V119.426C269.891 119.855 269.776 120.196 269.545 120.449C269.315 120.702 269.009 120.829 268.626 120.829ZM268.453 120.352C268.73 120.352 268.946 120.269 269.103 120.104C269.26 119.938 269.338 119.703 269.338 119.399V118.321C269.338 118.017 269.26 117.782 269.103 117.616C268.946 117.45 268.73 117.367 268.453 117.367C268.186 117.367 267.974 117.452 267.818 117.623C267.661 117.789 267.583 118.021 267.583 118.321V119.399C267.583 119.698 267.661 119.933 267.818 120.104C267.974 120.269 268.186 120.352 268.453 120.352ZM272.445 120.822C272.196 120.822 271.973 120.781 271.774 120.698C271.581 120.615 271.427 120.497 271.311 120.345C271.201 120.193 271.143 120.016 271.139 119.813H271.698C271.708 119.97 271.781 120.097 271.92 120.193C272.062 120.286 272.242 120.332 272.459 120.332H272.79C273.039 120.332 273.226 120.279 273.35 120.173C273.479 120.062 273.543 119.917 273.543 119.737C273.543 119.567 273.486 119.429 273.371 119.323C273.255 119.217 273.094 119.148 272.887 119.115L272.313 119.026C271.95 118.966 271.678 118.848 271.498 118.673C271.318 118.498 271.229 118.261 271.229 117.961C271.229 117.625 271.339 117.365 271.56 117.181C271.786 116.992 272.102 116.897 272.507 116.897H272.776C273.15 116.897 273.451 116.985 273.682 117.16C273.912 117.33 274.032 117.558 274.041 117.844H273.481C273.472 117.706 273.403 117.595 273.274 117.512C273.15 117.429 272.979 117.388 272.763 117.388H272.493C272.267 117.388 272.09 117.439 271.961 117.54C271.832 117.641 271.768 117.782 271.768 117.961C271.768 118.265 271.977 118.45 272.396 118.514L272.963 118.604C273.341 118.664 273.622 118.784 273.806 118.963C273.99 119.138 274.082 119.385 274.082 119.703C274.082 120.048 273.972 120.322 273.751 120.525C273.53 120.723 273.207 120.822 272.783 120.822H272.445ZM275.261 120.76V120.262H276.616V117.457H275.406V116.96H277.168V120.262H278.454V120.76H275.261ZM276.83 116.262C276.687 116.262 276.572 116.225 276.484 116.151C276.401 116.077 276.36 115.976 276.36 115.847C276.36 115.713 276.401 115.607 276.484 115.529C276.572 115.451 276.687 115.412 276.83 115.412C276.973 115.412 277.086 115.451 277.168 115.529C277.256 115.607 277.3 115.713 277.3 115.847C277.3 115.971 277.256 116.073 277.168 116.151C277.086 116.225 276.973 116.262 276.83 116.262ZM281.284 120.76C280.975 120.76 280.731 120.675 280.552 120.504C280.372 120.329 280.282 120.092 280.282 119.793V117.457H279.204V116.96H280.282V115.888H280.835V116.96H282.362V117.457H280.835V119.793C280.835 119.935 280.874 120.051 280.952 120.138C281.035 120.221 281.146 120.262 281.284 120.262H282.293V120.76H281.284ZM285.013 120.829C284.718 120.829 284.462 120.772 284.246 120.656C284.029 120.537 283.861 120.368 283.741 120.152C283.622 119.935 283.562 119.684 283.562 119.399V118.321C283.562 118.031 283.622 117.779 283.741 117.568C283.861 117.351 284.029 117.185 284.246 117.07C284.462 116.95 284.718 116.89 285.013 116.89C285.308 116.89 285.563 116.95 285.78 117.07C285.996 117.185 286.164 117.351 286.284 117.568C286.404 117.779 286.464 118.031 286.464 118.321V118.991H284.101V119.399C284.101 119.707 284.179 119.947 284.336 120.117C284.497 120.283 284.723 120.366 285.013 120.366C285.257 120.366 285.455 120.318 285.607 120.221C285.764 120.124 285.863 119.984 285.904 119.8H286.45C286.399 120.117 286.245 120.368 285.987 120.553C285.729 120.737 285.404 120.829 285.013 120.829ZM285.925 118.625V118.321C285.925 118.012 285.847 117.775 285.69 117.609C285.533 117.439 285.308 117.353 285.013 117.353C284.723 117.353 284.497 117.439 284.336 117.609C284.179 117.775 284.101 118.012 284.101 118.321V118.563H285.98L285.925 118.625ZM293.299 120.822C293.005 120.822 292.747 120.765 292.526 120.649C292.309 120.53 292.141 120.364 292.021 120.152C291.906 119.935 291.848 119.68 291.848 119.385V118.335C291.848 118.04 291.906 117.786 292.021 117.574C292.141 117.358 292.309 117.192 292.526 117.077C292.747 116.957 293.005 116.897 293.299 116.897C293.599 116.897 293.857 116.957 294.073 117.077C294.29 117.192 294.456 117.356 294.571 117.568C294.691 117.779 294.751 118.033 294.751 118.328V119.385C294.751 119.68 294.691 119.935 294.571 120.152C294.456 120.364 294.29 120.53 294.073 120.649C293.857 120.765 293.599 120.822 293.299 120.822ZM293.299 120.332C293.585 120.332 293.806 120.251 293.963 120.09C294.119 119.929 294.198 119.694 294.198 119.385V118.335C294.198 118.026 294.117 117.791 293.956 117.63C293.799 117.469 293.58 117.388 293.299 117.388C293.018 117.388 292.797 117.469 292.636 117.63C292.479 117.791 292.401 118.026 292.401 118.335V119.385C292.401 119.694 292.479 119.929 292.636 120.09C292.797 120.251 293.018 120.332 293.299 120.332ZM296.04 120.76V116.96H296.586V117.664H296.724L296.572 117.865C296.572 117.561 296.664 117.323 296.848 117.153C297.037 116.978 297.293 116.89 297.615 116.89C297.993 116.89 298.295 117.01 298.521 117.25C298.746 117.485 298.859 117.805 298.859 118.21V120.76H298.313V118.272C298.313 117.982 298.237 117.759 298.085 117.602C297.933 117.446 297.726 117.367 297.463 117.367C297.192 117.367 296.977 117.45 296.821 117.616C296.664 117.782 296.586 118.017 296.586 118.321V120.76H296.04Z" fill="#B2519E"/>
<path d="M259.351 130.294L259.911 128.808L258.474 125.25H259.075L260.001 127.62C260.038 127.712 260.075 127.815 260.112 127.931C260.148 128.041 260.176 128.133 260.194 128.207C260.218 128.133 260.245 128.039 260.277 127.924C260.314 127.809 260.351 127.705 260.388 127.613L261.252 125.25H261.832L259.925 130.294H259.351ZM264.296 129.112C264.001 129.112 263.744 129.055 263.522 128.939C263.306 128.82 263.138 128.654 263.018 128.442C262.903 128.225 262.845 127.97 262.845 127.675V126.625C262.845 126.33 262.903 126.076 263.018 125.865C263.138 125.648 263.306 125.482 263.522 125.367C263.744 125.247 264.001 125.187 264.296 125.187C264.596 125.187 264.854 125.247 265.07 125.367C265.287 125.482 265.453 125.646 265.568 125.858C265.688 126.07 265.747 126.323 265.747 126.618V127.675C265.747 127.97 265.688 128.225 265.568 128.442C265.453 128.654 265.287 128.82 265.07 128.939C264.854 129.055 264.596 129.112 264.296 129.112ZM264.296 128.622C264.582 128.622 264.803 128.541 264.96 128.38C265.116 128.219 265.195 127.984 265.195 127.675V126.625C265.195 126.316 265.114 126.081 264.953 125.92C264.796 125.759 264.577 125.678 264.296 125.678C264.015 125.678 263.794 125.759 263.633 125.92C263.476 126.081 263.398 126.316 263.398 126.625V127.675C263.398 127.984 263.476 128.219 263.633 128.38C263.794 128.541 264.015 128.622 264.296 128.622ZM268.433 129.119C268.004 129.119 267.661 128.99 267.403 128.732C267.15 128.474 267.023 128.124 267.023 127.682V125.25H267.569V127.682C267.569 127.981 267.645 128.216 267.797 128.387C267.954 128.553 268.166 128.635 268.433 128.635C268.705 128.635 268.919 128.553 269.075 128.387C269.232 128.216 269.31 127.981 269.31 127.682V125.25H269.856V127.682C269.856 128.124 269.727 128.474 269.469 128.732C269.211 128.99 268.866 129.119 268.433 129.119ZM271.298 129.05V125.25H271.844V125.954H271.961L271.823 126.169C271.823 125.86 271.915 125.618 272.099 125.443C272.288 125.268 272.544 125.18 272.866 125.18C273.267 125.18 273.585 125.307 273.82 125.56C274.055 125.809 274.172 126.146 274.172 126.569V126.832H273.613V126.611C273.613 126.307 273.534 126.072 273.378 125.906C273.226 125.74 273.004 125.657 272.714 125.657C272.438 125.657 272.224 125.74 272.072 125.906C271.92 126.067 271.844 126.302 271.844 126.611V129.05H271.298ZM280.89 129.119C280.595 129.119 280.337 129.062 280.116 128.946C279.895 128.831 279.722 128.668 279.598 128.456C279.478 128.239 279.418 127.984 279.418 127.689V126.611C279.418 126.316 279.478 126.063 279.598 125.851C279.722 125.634 279.895 125.468 280.116 125.353C280.337 125.238 280.595 125.18 280.89 125.18C281.323 125.18 281.671 125.298 281.934 125.533C282.196 125.768 282.332 126.088 282.341 126.493H281.795C281.786 126.231 281.701 126.028 281.54 125.885C281.383 125.742 281.167 125.671 280.89 125.671C280.609 125.671 280.386 125.754 280.22 125.92C280.054 126.081 279.971 126.311 279.971 126.611V127.689C279.971 127.984 280.054 128.214 280.22 128.38C280.386 128.546 280.609 128.629 280.89 128.629C281.167 128.629 281.383 128.557 281.54 128.414C281.701 128.267 281.786 128.064 281.795 127.806H282.341C282.332 128.212 282.196 128.532 281.934 128.767C281.671 129.002 281.323 129.119 280.89 129.119ZM285.013 129.112C284.718 129.112 284.46 129.055 284.239 128.939C284.022 128.82 283.854 128.654 283.734 128.442C283.619 128.225 283.562 127.97 283.562 127.675V126.625C283.562 126.33 283.619 126.076 283.734 125.865C283.854 125.648 284.022 125.482 284.239 125.367C284.46 125.247 284.718 125.187 285.013 125.187C285.312 125.187 285.57 125.247 285.787 125.367C286.003 125.482 286.169 125.646 286.284 125.858C286.404 126.07 286.464 126.323 286.464 126.618V127.675C286.464 127.97 286.404 128.225 286.284 128.442C286.169 128.654 286.003 128.82 285.787 128.939C285.57 129.055 285.312 129.112 285.013 129.112ZM285.013 128.622C285.298 128.622 285.52 128.541 285.676 128.38C285.833 128.219 285.911 127.984 285.911 127.675V126.625C285.911 126.316 285.831 126.081 285.669 125.92C285.513 125.759 285.294 125.678 285.013 125.678C284.732 125.678 284.511 125.759 284.349 125.92C284.193 126.081 284.115 126.316 284.115 126.625V127.675C284.115 127.984 284.193 128.219 284.349 128.38C284.511 128.541 284.732 128.622 285.013 128.622ZM287.532 129.05V125.25H288.016V125.719H288.12L288.037 125.871C288.037 125.664 288.097 125.498 288.216 125.374C288.336 125.245 288.493 125.18 288.686 125.18C288.889 125.18 289.052 125.259 289.177 125.415C289.306 125.567 289.373 125.77 289.377 126.023L289.225 125.719H289.46L289.357 125.871C289.357 125.669 289.416 125.503 289.536 125.374C289.661 125.245 289.822 125.18 290.02 125.18C290.25 125.18 290.434 125.268 290.573 125.443C290.711 125.618 290.78 125.851 290.78 126.141V129.05H290.269V126.141C290.269 125.97 290.229 125.839 290.151 125.747C290.077 125.655 289.972 125.609 289.833 125.609C289.69 125.609 289.58 125.657 289.502 125.754C289.423 125.846 289.384 125.975 289.384 126.141V129.05H288.928V126.141C288.928 125.97 288.889 125.839 288.811 125.747C288.732 125.655 288.624 125.609 288.486 125.609C288.348 125.609 288.239 125.655 288.161 125.747C288.083 125.839 288.044 125.97 288.044 126.141V129.05H287.532ZM291.904 130.294V125.25H292.449V125.92H292.595L292.429 126.148C292.429 125.848 292.526 125.613 292.719 125.443C292.917 125.268 293.175 125.18 293.493 125.18C293.875 125.18 294.179 125.307 294.405 125.56C294.635 125.809 294.751 126.15 294.751 126.583V127.71C294.751 128 294.698 128.251 294.592 128.463C294.49 128.67 294.345 128.831 294.156 128.946C293.972 129.062 293.751 129.119 293.493 129.119C293.18 129.119 292.924 129.032 292.726 128.857C292.528 128.682 292.429 128.447 292.429 128.152L292.574 128.38H292.436L292.449 129.154V130.294H291.904ZM293.327 128.642C293.599 128.642 293.813 128.559 293.97 128.394C294.126 128.228 294.205 127.993 294.205 127.689V126.611C294.205 126.302 294.126 126.067 293.97 125.906C293.813 125.74 293.599 125.657 293.327 125.657C293.06 125.657 292.846 125.742 292.684 125.913C292.528 126.079 292.449 126.311 292.449 126.611V127.689C292.449 127.988 292.528 128.223 292.684 128.394C292.846 128.559 293.06 128.642 293.327 128.642ZM297.436 129.119C297.007 129.119 296.664 128.99 296.406 128.732C296.153 128.474 296.026 128.124 296.026 127.682V125.25H296.572V127.682C296.572 127.981 296.648 128.216 296.8 128.387C296.957 128.553 297.169 128.635 297.436 128.635C297.708 128.635 297.922 128.553 298.078 128.387C298.235 128.216 298.313 127.981 298.313 127.682V125.25H298.859V127.682C298.859 128.124 298.73 128.474 298.472 128.732C298.214 128.99 297.869 129.119 297.436 129.119ZM302.001 129.05C301.692 129.05 301.448 128.965 301.268 128.794C301.089 128.619 300.999 128.382 300.999 128.083V125.747H299.921V125.25H300.999V124.178H301.551V125.25H303.079V125.747H301.551V128.083C301.551 128.225 301.591 128.341 301.669 128.428C301.752 128.511 301.862 128.553 302.001 128.553H303.009V129.05H302.001ZM305.729 129.119C305.434 129.119 305.179 129.062 304.962 128.946C304.746 128.827 304.578 128.658 304.458 128.442C304.338 128.225 304.278 127.974 304.278 127.689V126.611C304.278 126.321 304.338 126.07 304.458 125.858C304.578 125.641 304.746 125.475 304.962 125.36C305.179 125.24 305.434 125.18 305.729 125.18C306.024 125.18 306.28 125.24 306.496 125.36C306.713 125.475 306.881 125.641 307.001 125.858C307.121 126.07 307.18 126.321 307.18 126.611V127.281H304.817V127.689C304.817 127.997 304.896 128.237 305.052 128.407C305.213 128.573 305.439 128.656 305.729 128.656C305.973 128.656 306.172 128.608 306.324 128.511C306.48 128.414 306.579 128.274 306.621 128.09H307.167C307.116 128.407 306.962 128.658 306.704 128.843C306.446 129.027 306.121 129.119 305.729 129.119ZM306.641 126.915V126.611C306.641 126.302 306.563 126.065 306.407 125.899C306.25 125.729 306.024 125.643 305.729 125.643C305.439 125.643 305.213 125.729 305.052 125.899C304.896 126.065 304.817 126.302 304.817 126.611V126.853H306.697L306.641 126.915ZM308.587 129.05V125.25H309.133V125.954H309.251L309.113 126.169C309.113 125.86 309.205 125.618 309.389 125.443C309.578 125.268 309.833 125.18 310.156 125.18C310.557 125.18 310.875 125.307 311.11 125.56C311.344 125.809 311.462 126.146 311.462 126.569V126.832H310.902V126.611C310.902 126.307 310.824 126.072 310.667 125.906C310.515 125.74 310.294 125.657 310.004 125.657C309.728 125.657 309.513 125.74 309.361 125.906C309.209 126.067 309.133 126.302 309.133 126.611V129.05H308.587ZM314.016 129.119C313.845 129.119 313.71 129.071 313.608 128.974C313.511 128.873 313.463 128.739 313.463 128.573C313.463 128.398 313.511 128.26 313.608 128.159C313.71 128.057 313.845 128.007 314.016 128.007C314.186 128.007 314.32 128.057 314.417 128.159C314.518 128.26 314.569 128.398 314.569 128.573C314.569 128.739 314.518 128.873 314.417 128.974C314.32 129.071 314.186 129.119 314.016 129.119Z" fill="#B2519E"/>
<path d="M260.713 146.28V142.01H261.889C262.147 142.01 262.365 142.054 262.544 142.144C262.728 142.23 262.868 142.357 262.966 142.524C263.067 142.688 263.118 142.885 263.118 143.115C263.118 143.412 263.028 143.648 262.849 143.823C262.673 143.999 262.433 144.084 262.129 144.08V143.999C262.461 143.995 262.724 144.092 262.919 144.291C263.118 144.49 263.217 144.759 263.217 145.098C263.217 145.34 263.166 145.551 263.065 145.73C262.964 145.906 262.819 146.042 262.632 146.14C262.445 146.233 262.221 146.28 261.959 146.28H260.713ZM261.164 145.859H261.918C262.18 145.859 262.384 145.791 262.533 145.654C262.685 145.514 262.761 145.325 262.761 145.087C262.761 144.841 262.685 144.644 262.533 144.496C262.384 144.344 262.18 144.268 261.918 144.268H261.164V145.859ZM261.164 143.864H261.889C262.127 143.864 262.314 143.8 262.451 143.671C262.587 143.542 262.656 143.367 262.656 143.144C262.656 142.922 262.587 142.749 262.451 142.624C262.318 142.495 262.131 142.431 261.889 142.431H261.164V143.864ZM265.397 146.339C265.034 146.339 264.744 146.229 264.525 146.011C264.311 145.793 264.203 145.496 264.203 145.122V143.063H264.666V145.122C264.666 145.375 264.73 145.574 264.859 145.718C264.991 145.859 265.171 145.929 265.397 145.929C265.627 145.929 265.808 145.859 265.941 145.718C266.074 145.574 266.14 145.375 266.14 145.122V143.063H266.602V145.122C266.602 145.496 266.493 145.793 266.274 146.011C266.056 146.229 265.763 146.339 265.397 146.339ZM268.793 146.333C268.583 146.333 268.394 146.298 268.226 146.227C268.062 146.157 267.932 146.058 267.834 145.929C267.74 145.8 267.692 145.65 267.688 145.479H268.162C268.169 145.611 268.232 145.718 268.349 145.8C268.47 145.878 268.622 145.917 268.805 145.917H269.086C269.297 145.917 269.454 145.872 269.56 145.783C269.669 145.689 269.724 145.566 269.724 145.414C269.724 145.27 269.675 145.153 269.577 145.063C269.48 144.974 269.343 144.915 269.168 144.888L268.682 144.812C268.374 144.761 268.144 144.662 267.992 144.513C267.84 144.365 267.764 144.164 267.764 143.911C267.764 143.626 267.857 143.406 268.045 143.25C268.236 143.09 268.503 143.01 268.846 143.01H269.074C269.39 143.01 269.646 143.084 269.841 143.232C270.036 143.376 270.137 143.57 270.145 143.811H269.671C269.663 143.694 269.605 143.601 269.495 143.531C269.39 143.46 269.246 143.425 269.063 143.425H268.834C268.643 143.425 268.493 143.468 268.384 143.554C268.275 143.64 268.22 143.759 268.22 143.911C268.22 144.168 268.398 144.324 268.752 144.379L269.232 144.455C269.552 144.506 269.79 144.607 269.946 144.759C270.102 144.907 270.18 145.116 270.18 145.385C270.18 145.677 270.086 145.91 269.899 146.081C269.712 146.249 269.439 146.333 269.08 146.333H268.793ZM271.178 146.28V145.859H272.325V143.484H271.301V143.063H272.793V145.859H273.881V146.28H271.178ZM272.506 142.472C272.385 142.472 272.288 142.44 272.213 142.378C272.143 142.316 272.108 142.23 272.108 142.121C272.108 142.008 272.143 141.918 272.213 141.852C272.288 141.785 272.385 141.752 272.506 141.752C272.627 141.752 272.722 141.785 272.793 141.852C272.867 141.918 272.904 142.008 272.904 142.121C272.904 142.226 272.867 142.312 272.793 142.378C272.722 142.44 272.627 142.472 272.506 142.472ZM274.738 146.28V143.063H275.2V143.659H275.317L275.189 143.829C275.189 143.571 275.267 143.371 275.423 143.226C275.583 143.078 275.799 143.004 276.072 143.004C276.392 143.004 276.647 143.105 276.838 143.308C277.03 143.507 277.125 143.778 277.125 144.121V146.28H276.663V144.174C276.663 143.928 276.599 143.739 276.47 143.607C276.341 143.474 276.166 143.408 275.943 143.408C275.713 143.408 275.532 143.478 275.399 143.618C275.267 143.759 275.2 143.958 275.2 144.215V146.28H274.738ZM279.434 146.339C279.184 146.339 278.968 146.29 278.784 146.192C278.601 146.091 278.459 145.949 278.357 145.765C278.256 145.582 278.205 145.369 278.205 145.128V144.215C278.205 143.969 278.256 143.757 278.357 143.577C278.459 143.394 278.601 143.254 278.784 143.156C278.968 143.055 279.184 143.004 279.434 143.004C279.683 143.004 279.9 143.055 280.083 143.156C280.266 143.254 280.409 143.394 280.51 143.577C280.611 143.757 280.662 143.969 280.662 144.215V144.782H278.661V145.128C278.661 145.389 278.728 145.592 278.86 145.736C278.997 145.876 279.188 145.947 279.434 145.947C279.64 145.947 279.808 145.906 279.937 145.824C280.069 145.742 280.153 145.623 280.188 145.467H280.65C280.607 145.736 280.477 145.949 280.258 146.105C280.04 146.261 279.765 146.339 279.434 146.339ZM280.206 144.472V144.215C280.206 143.954 280.139 143.753 280.007 143.612C279.874 143.468 279.683 143.396 279.434 143.396C279.188 143.396 278.997 143.468 278.86 143.612C278.728 143.753 278.661 143.954 278.661 144.215V144.42H280.253L280.206 144.472ZM282.824 146.333C282.614 146.333 282.425 146.298 282.257 146.227C282.093 146.157 281.962 146.058 281.865 145.929C281.771 145.8 281.723 145.65 281.719 145.479H282.193C282.2 145.611 282.263 145.718 282.38 145.8C282.501 145.878 282.653 145.917 282.836 145.917H283.117C283.327 145.917 283.485 145.872 283.591 145.783C283.7 145.689 283.754 145.566 283.754 145.414C283.754 145.27 283.706 145.153 283.608 145.063C283.511 144.974 283.374 144.915 283.199 144.888L282.713 144.812C282.405 144.761 282.175 144.662 282.023 144.513C281.871 144.365 281.795 144.164 281.795 143.911C281.795 143.626 281.888 143.406 282.076 143.25C282.267 143.09 282.534 143.01 282.877 143.01H283.105C283.421 143.01 283.676 143.084 283.871 143.232C284.066 143.376 284.168 143.57 284.176 143.811H283.702C283.694 143.694 283.636 143.601 283.526 143.531C283.421 143.46 283.277 143.425 283.093 143.425H282.865C282.674 143.425 282.524 143.468 282.415 143.554C282.306 143.64 282.251 143.759 282.251 143.911C282.251 144.168 282.428 144.324 282.783 144.379L283.263 144.455C283.583 144.506 283.821 144.607 283.977 144.759C284.133 144.907 284.211 145.116 284.211 145.385C284.211 145.677 284.117 145.91 283.93 146.081C283.743 146.249 283.47 146.333 283.111 146.333H282.824ZM286.332 146.333C286.121 146.333 285.932 146.298 285.765 146.227C285.601 146.157 285.47 146.058 285.373 145.929C285.279 145.8 285.23 145.65 285.226 145.479H285.7C285.708 145.611 285.77 145.718 285.887 145.8C286.008 145.878 286.16 145.917 286.344 145.917H286.625C286.835 145.917 286.993 145.872 287.098 145.783C287.208 145.689 287.262 145.566 287.262 145.414C287.262 145.27 287.213 145.153 287.116 145.063C287.018 144.974 286.882 144.915 286.706 144.888L286.221 144.812C285.913 144.761 285.683 144.662 285.531 144.513C285.378 144.365 285.302 144.164 285.302 143.911C285.302 143.626 285.396 143.406 285.583 143.25C285.774 143.09 286.041 143.01 286.385 143.01H286.613C286.929 143.01 287.184 143.084 287.379 143.232C287.574 143.376 287.676 143.57 287.683 143.811H287.21C287.202 143.694 287.143 143.601 287.034 143.531C286.929 143.46 286.784 143.425 286.601 143.425H286.373C286.182 143.425 286.032 143.468 285.923 143.554C285.813 143.64 285.759 143.759 285.759 143.911C285.759 144.168 285.936 144.324 286.291 144.379L286.771 144.455C287.091 144.506 287.328 144.607 287.484 144.759C287.64 144.907 287.718 145.116 287.718 145.385C287.718 145.677 287.625 145.91 287.438 146.081C287.25 146.249 286.977 146.333 286.619 146.333H286.332ZM289.524 143.876C289.645 143.649 289.736 143.472 289.799 143.343C289.865 143.211 289.91 143.105 289.933 143.027C289.957 142.946 289.968 142.869 289.968 142.799C289.968 142.682 289.929 142.589 289.851 142.518C289.777 142.448 289.672 142.413 289.536 142.413H289.401V142.01H289.559C289.824 142.01 290.031 142.08 290.179 142.22C290.331 142.357 290.407 142.54 290.407 142.77C290.407 142.86 290.395 142.951 290.372 143.045C290.349 143.139 290.306 143.252 290.243 143.384C290.181 143.513 290.095 143.677 289.986 143.876H289.524ZM293.347 146.333C293.137 146.333 292.948 146.298 292.78 146.227C292.616 146.157 292.486 146.058 292.388 145.929C292.294 145.8 292.246 145.65 292.242 145.479H292.716C292.723 145.611 292.786 145.718 292.903 145.8C293.024 145.878 293.176 145.917 293.359 145.917H293.64C293.851 145.917 294.008 145.872 294.114 145.783C294.223 145.689 294.278 145.566 294.278 145.414C294.278 145.27 294.229 145.153 294.131 145.063C294.034 144.974 293.897 144.915 293.722 144.888L293.236 144.812C292.928 144.761 292.698 144.662 292.546 144.513C292.394 144.365 292.318 144.164 292.318 143.911C292.318 143.626 292.411 143.406 292.599 143.25C292.79 143.09 293.057 143.01 293.4 143.01H293.628C293.944 143.01 294.2 143.084 294.395 143.232C294.59 143.376 294.691 143.57 294.699 143.811H294.225C294.217 143.694 294.159 143.601 294.049 143.531C293.944 143.46 293.8 143.425 293.617 143.425H293.388C293.197 143.425 293.047 143.468 292.938 143.554C292.829 143.64 292.774 143.759 292.774 143.911C292.774 144.168 292.952 144.324 293.306 144.379L293.786 144.455C294.106 144.506 294.344 144.607 294.5 144.759C294.656 144.907 294.734 145.116 294.734 145.385C294.734 145.677 294.64 145.91 294.453 146.081C294.266 146.249 293.993 146.333 293.634 146.333H293.347ZM300.228 146.339C299.889 146.339 299.622 146.253 299.427 146.081C299.232 145.906 299.134 145.67 299.134 145.373C299.134 145.081 299.23 144.851 299.421 144.683C299.612 144.511 299.87 144.426 300.193 144.426H301.217V144.086C301.217 143.876 301.151 143.712 301.018 143.595C300.889 143.474 300.714 143.414 300.492 143.414C300.285 143.414 300.115 143.462 299.983 143.56C299.854 143.657 299.78 143.774 299.76 143.911H299.292C299.32 143.731 299.386 143.575 299.491 143.443C299.6 143.306 299.743 143.199 299.918 143.121C300.094 143.043 300.289 143.004 300.503 143.004C300.866 143.004 301.153 143.102 301.363 143.297C301.574 143.488 301.679 143.747 301.679 144.075V146.28H301.223V145.654H301.147L301.235 145.56C301.235 145.798 301.143 145.988 300.96 146.128C300.776 146.268 300.533 146.339 300.228 146.339ZM300.339 145.964C300.597 145.964 300.807 145.9 300.971 145.771C301.135 145.642 301.217 145.475 301.217 145.268V144.782H300.199C300.016 144.782 299.87 144.833 299.76 144.935C299.651 145.036 299.597 145.174 299.597 145.35C299.597 145.537 299.663 145.687 299.795 145.8C299.928 145.91 300.109 145.964 300.339 145.964ZM303.83 146.339C303.51 146.339 303.25 146.231 303.052 146.017C302.857 145.802 302.759 145.514 302.759 145.151V144.197C302.759 143.831 302.857 143.54 303.052 143.326C303.247 143.111 303.506 143.004 303.83 143.004C304.099 143.004 304.315 143.078 304.479 143.226C304.647 143.375 304.731 143.573 304.731 143.823L304.608 143.63H304.719L304.713 142.928V142.01H305.175V146.28H304.713V145.713H304.59L304.731 145.52C304.731 145.773 304.647 145.974 304.479 146.122C304.315 146.266 304.099 146.339 303.83 146.339ZM303.976 145.935C304.206 145.935 304.385 145.865 304.514 145.724C304.647 145.58 304.713 145.381 304.713 145.128V144.215C304.713 143.961 304.647 143.765 304.514 143.624C304.385 143.48 304.206 143.408 303.976 143.408C303.742 143.408 303.559 143.478 303.426 143.618C303.293 143.759 303.227 143.958 303.227 144.215V145.128C303.227 145.385 303.293 145.584 303.426 145.724C303.559 145.865 303.742 145.935 303.976 145.935ZM307.378 146.333C307.168 146.333 306.979 146.298 306.811 146.227C306.647 146.157 306.516 146.058 306.419 145.929C306.325 145.8 306.277 145.65 306.273 145.479H306.747C306.754 145.611 306.817 145.718 306.934 145.8C307.055 145.878 307.207 145.917 307.39 145.917H307.671C307.881 145.917 308.039 145.872 308.145 145.783C308.254 145.689 308.308 145.566 308.308 145.414C308.308 145.27 308.26 145.153 308.162 145.063C308.065 144.974 307.928 144.915 307.753 144.888L307.267 144.812C306.959 144.761 306.729 144.662 306.577 144.513C306.425 144.365 306.349 144.164 306.349 143.911C306.349 143.626 306.442 143.406 306.63 143.25C306.821 143.09 307.088 143.01 307.431 143.01H307.659C307.975 143.01 308.23 143.084 308.425 143.232C308.62 143.376 308.722 143.57 308.73 143.811H308.256C308.248 143.694 308.19 143.601 308.08 143.531C307.975 143.46 307.831 143.425 307.647 143.425H307.419C307.228 143.425 307.078 143.468 306.969 143.554C306.86 143.64 306.805 143.759 306.805 143.911C306.805 144.168 306.982 144.324 307.337 144.379L307.817 144.455C308.137 144.506 308.375 144.607 308.531 144.759C308.687 144.907 308.765 145.116 308.765 145.385C308.765 145.677 308.671 145.91 308.484 146.081C308.297 146.249 308.024 146.333 307.665 146.333H307.378Z" fill="#B2519E"/>
<path d="M327.48 114.83H331.51" stroke="#B2519E" stroke-miterlimit="10" stroke-linecap="round"/>
<path d="M327.48 116.12H331.51" stroke="#B2519E" stroke-miterlimit="10" stroke-linecap="round"/>
<path d="M327.48 117.42H331.51" stroke="#B2519E" stroke-miterlimit="10" stroke-linecap="round"/>
<path d="M258.92 106.44L257.25 104.77" stroke="#131023" stroke-miterlimit="10" stroke-linecap="round"/>
<path d="M257.25 106.44L258.92 104.77" stroke="#131023" stroke-miterlimit="10" stroke-linecap="round"/>
<path d="M180.05 85.96H31.35C23.2314 85.96 16.65 92.5414 16.65 100.66V181.56C16.65 189.679 23.2314 196.26 31.35 196.26H180.05C188.169 196.26 194.75 189.679 194.75 181.56V100.66C194.75 92.5414 188.169 85.96 180.05 85.96Z" stroke="#B2519E" stroke-width="2" stroke-miterlimit="10"/>
<path d="M194.76 100.66H16.65" stroke="#B2519E" stroke-width="2" stroke-miterlimit="10"/>
<path d="M31.91 90.58H31.9C30.21 90.58 28.84 91.95 28.84 93.64V93.6499C28.84 95.3399 30.21 96.7099 31.9 96.7099H31.91C33.6 96.7099 34.97 95.3399 34.97 93.6499V93.64C34.97 91.95 33.6 90.58 31.91 90.58Z" fill="#B2519E" stroke="#B2519E" stroke-miterlimit="10"/>
<path d="M41.47 90.58H41.46C39.77 90.58 38.4 91.95 38.4 93.64V93.6499C38.4 95.3399 39.77 96.7099 41.46 96.7099H41.47C43.16 96.7099 44.53 95.3399 44.53 93.6499V93.64C44.53 91.95 43.16 90.58 41.47 90.58Z" stroke="#B2519E" stroke-miterlimit="10"/>
<path d="M51.04 90.58H51.03C49.34 90.58 47.97 91.95 47.97 93.64V93.6499C47.97 95.3399 49.34 96.7099 51.03 96.7099H51.04C52.73 96.7099 54.1 95.3399 54.1 93.6499V93.64C54.1 91.95 52.73 90.58 51.04 90.58Z" stroke="#B2519E" stroke-miterlimit="10"/>
<path d="M33.56 95.27L30.24 91.9399" stroke="#131023" stroke-miterlimit="10" stroke-linecap="round"/>
<path d="M30.24 95.27L33.56 91.9399" stroke="#131023" stroke-miterlimit="10" stroke-linecap="round"/>
<path d="M254.95 200.54H234.25C233.134 200.54 232.23 201.444 232.23 202.56C232.23 203.676 233.134 204.58 234.25 204.58H254.95C256.066 204.58 256.97 203.676 256.97 202.56C256.97 201.444 256.066 200.54 254.95 200.54Z" fill="#B2519E" stroke="#B2519E" stroke-width="2" stroke-miterlimit="10"/>
<path d="M368.79 200.54H348.09C346.974 200.54 346.07 201.444 346.07 202.56C346.07 203.676 346.974 204.58 348.09 204.58H368.79C369.906 204.58 370.81 203.676 370.81 202.56C370.81 201.444 369.906 200.54 368.79 200.54Z" fill="#B2519E" stroke="#B2519E" stroke-width="2" stroke-miterlimit="10"/>
<path d="M51.63 110.32L50.63 133.02C50.42 133.02 50.2 132.89 50.09 132.66C49.66 131.78 49.03 131.04 48.24 130.49C47.55 130 46.73 129.66 45.86 129.53C45.58 129.49 45.29 129.46 45 129.46C43.51 129.46 42.15 130.04 41.14 130.99C40.72 131.39 40.03 131 40.12 130.43L42.99 112.76C43.22 111.35 44.44 110.31 45.86 110.31H51.63V110.32Z" fill="#B2519E" stroke="#B2519E" stroke-linecap="round" stroke-linejoin="round"/>
<path d="M61.89 110.32V133.01C61.69 132.99 61.49 132.88 61.39 132.66C60.48 130.77 58.54 129.46 56.3 129.46C54.06 129.46 52.12 130.77 51.21 132.66C51.09 132.91 50.85 133.02 50.63 133.02L51.63 110.32H61.9H61.89Z" stroke="#B2519E" stroke-linecap="round" stroke-linejoin="round"/>
<path d="M84.58 133.02C84.35 133.02 84.12 132.91 84 132.66C83.09 130.77 81.15 129.46 78.91 129.46C76.67 129.46 74.74 130.77 73.82 132.66C73.7 132.91 73.46 133.02 73.23 133.02V110.32H83.59L84.59 133.02H84.58Z" stroke="#B2519E" stroke-linecap="round" stroke-linejoin="round"/>
<path d="M73.22 110.32V133.02C73.01 133.02 72.8 132.89 72.69 132.66C71.78 130.77 69.84 129.46 67.6 129.46C65.36 129.46 63.43 130.77 62.51 132.66C62.39 132.92 62.14 133.03 61.89 133.01V110.32H73.22Z" fill="#B2519E" stroke="#B2519E" stroke-linecap="round" stroke-linejoin="round"/>
<path d="M94.08 131C93.07 130.05 91.71 129.46 90.21 129.46C89.92 129.46 89.62 129.48 89.34 129.53C88.46 129.66 87.65 130 86.96 130.49C86.17 131.04 85.53 131.78 85.12 132.66C85.01 132.89 84.8 133.01 84.58 133.02L83.58 110.32H89.36C90.79 110.32 92 111.36 92.23 112.77L95.1 130.44C95.19 131.02 94.5 131.4 94.08 131Z" fill="#B2519E" stroke="#B2519E" stroke-linecap="round" stroke-linejoin="round"/>
<path d="M48.24 130.5V153.65H45.86V129.54C46.74 129.67 47.55 130.01 48.24 130.5Z" stroke="#B2519E" stroke-linecap="round" stroke-linejoin="round"/>
<path d="M89.34 129.54V153.65H86.96V130.5C87.66 130.01 88.47 129.67 89.34 129.54Z" stroke="#B2519E" stroke-linecap="round" stroke-linejoin="round"/>
<path d="M95.11 155.51V158.5C95.11 159.52 94.28 160.36 93.26 160.36H41.97C40.95 160.36 40.12 159.53 40.12 158.5V155.51C40.12 154.49 40.95 153.65 41.97 153.65H93.26C94.28 153.65 95.11 154.48 95.11 155.51Z" stroke="#B2519E" stroke-linecap="round" stroke-linejoin="round"/>
<path d="M43.18 160.35H91.09V181.03C91.09 182.16 90.18 183.07 89.05 183.07H45.22C44.09 183.07 43.18 182.16 43.18 181.03V160.35Z" stroke="#B2519E" stroke-linecap="round" stroke-linejoin="round"/>
<path d="M355.19 84.9399H247.85C239.24 84.9399 232.23 91.9499 232.23 100.56V168.6C232.23 177.21 239.24 184.22 247.85 184.22H355.19C363.81 184.22 370.81 177.21 370.81 168.6V100.56C370.81 91.9499 363.81 84.9399 355.19 84.9399ZM364.45 168.61C364.45 173.72 360.31 177.87 355.19 177.87H247.85C242.74 177.87 238.59 173.73 238.59 168.61V100.57C238.59 95.4599 242.74 91.3099 247.85 91.3099H355.19C360.31 91.3099 364.45 95.4599 364.45 100.57V168.61Z" fill="#B2519E" stroke="#B2519E" stroke-width="2" stroke-miterlimit="10"/>
<path d="M308.99 136.87H261.05C259.52 136.87 258.28 138.11 258.28 139.64V148.47C258.28 150 259.52 151.24 261.05 151.24H308.99C310.52 151.24 311.76 150 311.76 148.47V139.64C311.76 138.11 310.52 136.87 308.99 136.87Z" stroke="#B2519E" stroke-miterlimit="10"/>
<path d="M372.22 184.23H229.98C227.08 184.23 224.73 186.58 224.73 189.48V195.3C224.73 198.199 227.08 200.55 229.98 200.55H372.22C375.119 200.55 377.47 198.199 377.47 195.3V189.48C377.47 186.58 375.119 184.23 372.22 184.23Z" stroke="#B2519E" stroke-width="2" stroke-miterlimit="10"/>
</svg>
